<svg id="Layer_1" data-name="Layer 1" xmlns="http://www.w3.org/2000/svg" xmlns:xlink="http://www.w3.org/1999/xlink" viewBox="0 0 100 100"><defs><style>.cls-1{fill:none;}.cls-2{clip-path:url(#clip-path);}.cls-3{clip-path:url(#clip-path-2);}.cls-4{clip-path:url(#clip-path-3);}</style><clipPath id="clip-path"><path class="cls-1" d="M-734.54-110.7c2.62-8.43,9-16.68,19.55-25.15.75,8.8,4.71,12.63,9.23,17a56.73,56.73,0,0,1,7.44,8.32c4.48,6.34,5.18,13.65,1.92,20.05A20.93,20.93,0,0,1-714.5-79.19h-.45a19.43,19.43,0,0,1-16.32-8C-735.87-93.37-737.12-102.39-734.54-110.7Zm19.59,34.94h.51a24.41,24.41,0,0,0,21.1-13.16c3.85-7.57,3.06-16.16-2.17-23.58a59.57,59.57,0,0,0-7.86-8.81c-4.86-4.7-8.38-8.1-8.31-17.95a1.71,1.71,0,0,0-.95-1.55,1.72,1.72,0,0,0-1.81.17c-12.68,9.64-20.33,19.1-23.38,28.92-2.9,9.32-1.45,19.52,3.79,26.6A23.09,23.09,0,0,0-714.95-75.75Z"/></clipPath><clipPath id="clip-path-2"><path class="cls-1" d="M-638.19-110.7c2.62-8.43,9-16.68,19.55-25.15.75,8.8,4.71,12.63,9.23,17a56.73,56.73,0,0,1,7.44,8.32c4.48,6.34,5.18,13.65,1.92,20.05a20.93,20.93,0,0,1-18.09,11.29h-.45a19.43,19.43,0,0,1-16.32-8C-639.51-93.37-640.77-102.39-638.19-110.7Zm19.59,34.94h.51A24.41,24.41,0,0,0-597-88.92c3.85-7.57,3.06-16.16-2.17-23.58a59.57,59.57,0,0,0-7.86-8.81c-4.86-4.7-8.38-8.1-8.31-17.95a1.71,1.71,0,0,0-.95-1.55,1.72,1.72,0,0,0-1.81.17c-12.68,9.64-20.33,19.1-23.38,28.92-2.9,9.32-1.45,19.52,3.79,26.6A23.09,23.09,0,0,0-618.59-75.75Z"/></clipPath><clipPath id="clip-path-3"><path class="cls-1" d="M-719-109.41a7.81,7.81,0,0,0,1.71,4.23,3.79,3.79,0,0,0,2.84,1.29h0a5.57,5.57,0,0,0,4-2.14c1.47,3.13,3.39,9.94,1.68,14.16-1,2.48-3.14,3.68-6.53,3.68-2.89,0-4.78-1.5-5.76-4.58C-722.57-97.59-721.28-104.89-719-109.41Zm3.74,24.65c5.55,0,9.21-2.74,10.3-7.72,1.42-6.51-2.12-16.87-4.73-18.06a1.72,1.72,0,0,0-2.2.7c-1.07,1.85-2.12,2.52-2.57,2.52h0s-.14,0-.3-.18c-.64-.7-1.21-2.81-.88-6.64a1.71,1.71,0,0,0-.86-1.63,1.72,1.72,0,0,0-1.85.09c-5.18,3.65-8.36,16.42-6,24C-722.88-87.23-719.67-84.75-715.28-84.75Z"/></clipPath></defs><title>cool</title><path d="M50.8,18.18a2.33,2.33,0,0,1,1.57,2.53c-.05,2.31,0,4.62,0,6.93v.65l.5-.27c1.85-1,3.69-2.09,5.54-3.12a1.91,1.91,0,0,1,2.66.57,2,2,0,0,1-.76,2.87c-1.66,1-3.33,1.9-5,2.85-.87.5-1.75,1-2.61,1.51a.7.7,0,0,0-.31.49q0,7.12,0,14.24c0,.08,0,.15,0,.3l.47-.25,11.82-6.84A.61.61,0,0,0,65,40q-.06-4.48-.08-9a2,2,0,1,1,3.94,0c0,2.2.06,4.4.1,6.6,0,.13,0,.27,0,.48L71,37c1.72-1,3.44-2,5.17-3a2,2,0,0,1,2.53.39,2,2,0,0,1,0,2.53,3,3,0,0,1-.8.64c-2.13,1.24-4.26,2.47-6.4,3.71l-.45.27.49.31,5.54,3.3a2,2,0,0,1,.71,2.63,2,2,0,0,1-2.67.74Q71.28,46.25,67.43,44a.58.58,0,0,0-.68,0l-12.11,7-.28.19,1.6.94,10.74,6.26a.65.65,0,0,0,.76,0c2.5-1.48,5-2.94,7.51-4.41a2.13,2.13,0,0,1,1.53-.34,2,2,0,0,1,.63,3.6l-5.46,3.25-.58.36.51.31c2.17,1.26,4.35,2.51,6.52,3.77A2,2,0,0,1,78.64,68a2.16,2.16,0,0,1-2.65.28l-6.54-3.83L69,64.15c0,.59,0,1.11,0,1.63,0,1.84,0,3.67-.08,5.51a1.91,1.91,0,0,1-1.15,1.85,1.86,1.86,0,0,1-2-.25A1.94,1.94,0,0,1,65,71.28c0-3,0-5.94.08-8.91a.68.68,0,0,0-.39-.7q-5.92-3.41-11.82-6.83l-.44-.23c0,.22,0,.38,0,.54q0,6.93,0,13.86a.68.68,0,0,0,.42.69q3.77,2.09,7.51,4.21a2,2,0,0,1,.44,3.26,2,2,0,0,1-2.41.2L52.9,74.31,52.36,74c0,.25,0,.43,0,.61,0,2.47,0,4.93,0,7.4a2,2,0,1,1-4,0q0-3.77,0-7.54v-.59l-3,1.7-3.11,1.76a2,2,0,1,1-2-3.45q3.83-2.17,7.67-4.32a.75.75,0,0,0,.44-.77c0-4.54,0-9.08,0-13.62v-.52l-.5.27q-6,3.44-12.06,6.88a.68.68,0,0,0-.39.7c0,2.91.05,5.81.07,8.72a1.92,1.92,0,0,1-1.14,1.9,1.9,1.9,0,0,1-2.12-.29,1.86,1.86,0,0,1-.7-1.48q0-3.18-.06-6.36c0-.17,0-.33,0-.59l-.51.27-6.21,3.56a2.36,2.36,0,0,1-1.7.42,1.92,1.92,0,0,1-1.5-1.57,1.84,1.84,0,0,1,.73-2,4.67,4.67,0,0,1,.59-.38L29,61.15l.48-.3-4.08-2.42c-.65-.38-1.3-.76-1.94-1.15a2,2,0,0,1-.76-2.84,2,2,0,0,1,2.77-.53q3.82,2.24,7.62,4.51a.58.58,0,0,0,.68,0l12.3-7.13.28-.18-1.65-1Q39.29,47,33.84,43.91a.61.61,0,0,0-.72,0q-3.82,2.28-7.66,4.53a2,2,0,0,1-2.34-.12,2,2,0,0,1-.58-2.22,2.32,2.32,0,0,1,.83-1c1.88-1.17,3.79-2.29,5.69-3.43l.47-.3-4-2.31c-1.07-.62-2.16-1.22-3.2-1.89a1.78,1.78,0,0,1-.78-2A1.85,1.85,0,0,1,23,33.7a2.1,2.1,0,0,1,1.66.3L31,37.63l.5.28c0-.23,0-.38,0-.54,0-2.15,0-4.3.07-6.46A2,2,0,0,1,35.27,30a1.84,1.84,0,0,1,.22.81c0,2.87,0,5.75-.08,8.62a1.12,1.12,0,0,0,.64,1.18c4,2.25,7.89,4.53,11.84,6.81l.48.25v-.56q0-6.84,0-13.67a.71.71,0,0,0-.42-.73q-3.85-2.14-7.67-4.32a2,2,0,0,1-.78-2.89,1.89,1.89,0,0,1,2.65-.56l5.72,3.18.47.24c0-.21,0-.37,0-.54,0-2.39,0-4.78,0-7.17A2.24,2.24,0,0,1,50,18.18Z"/><rect class="cls-1" x="17.33" y="18.19" width="66" height="66"/></svg>