<svg id="Layer_1" data-name="Layer 1" xmlns="http://www.w3.org/2000/svg" xmlns:xlink="http://www.w3.org/1999/xlink" viewBox="0 0 200 300"><defs><style>.cls-1,.cls-23{fill:none;}.cls-2{clip-path:url(#clip-path);}.cls-3{clip-path:url(#clip-path-2);}.cls-4{clip-path:url(#clip-path-3);}.cls-5{clip-path:url(#clip-path-4);}.cls-6{clip-path:url(#clip-path-5);}.cls-7{clip-path:url(#clip-path-6);}.cls-8{clip-path:url(#clip-path-7);}.cls-9{clip-path:url(#clip-path-8);}.cls-10{clip-path:url(#clip-path-9);}.cls-11{clip-path:url(#clip-path-10);}.cls-12{clip-path:url(#clip-path-11);}.cls-13{clip-path:url(#clip-path-12);}.cls-14{clip-path:url(#clip-path-13);}.cls-15{clip-path:url(#clip-path-14);}.cls-16{clip-path:url(#clip-path-15);}.cls-17{clip-path:url(#clip-path-16);}.cls-18{clip-path:url(#clip-path-17);}.cls-19{clip-path:url(#clip-path-18);}.cls-20{clip-path:url(#clip-path-19);}.cls-21{clip-path:url(#clip-path-20);}.cls-22{clip-path:url(#clip-path-21);}.cls-23{stroke:#000;stroke-linecap:round;stroke-linejoin:round;stroke-width:3px;}</style><clipPath id="clip-path"><path class="cls-1" d="M490.39,223.2H370.23V24.81H490.39ZM347.53,199.1a55.81,55.81,0,0,0,11.8,1.26,1.26,1.26,0,0,0,1.26-1.26,1.33,1.33,0,0,0,0-.16V150.15a1.26,1.26,0,0,0-1.26-1.26h-.07a11.78,11.78,0,0,1-11.71-11.83V31.48l20.18-6.23V221.91l-20.18-15.46ZM386.34,10h86.73V22.29H386.34ZM372-9h86L471.65,7.51h-86ZM491.64,22.29H475.58V8.77a1.25,1.25,0,0,0,0-.24l0-.09a1.2,1.2,0,0,0,0-.14l0-.09-.06-.12L475.33,8l0-.06L459.85-10.71V-33.64a1.26,1.26,0,0,0-1.26-1.26,1.26,1.26,0,0,0-1.26,1.26v22.13H370.61V-33.62a1.26,1.26,0,0,0-1.26-1.26,1.26,1.26,0,0,0-1.26,1.26v23.37a1.25,1.25,0,0,0,0,.24l0,.09a1.25,1.25,0,0,0,0,.14l0,.09.06.12.06.08,0,.06L383.82,9.22V22.29h-15l-.17,0h0l-8.91,2.75V-29.22a1.26,1.26,0,0,0-1.26-1.26,1.26,1.26,0,0,0-1.26,1.26V25.87l-9.64,3V-24.43a1.26,1.26,0,0,0-1.26-1.26A1.26,1.26,0,0,0,345-24.43V137.43s0,.08,0,.12a14.31,14.31,0,0,0,13,13.81v46.47a53.51,53.51,0,0,1-52.12-53.48V-11.3a1.26,1.26,0,0,0-1.26-1.26,1.26,1.26,0,0,0-1.26,1.26V144.34A56.09,56.09,0,0,0,345,198.5a1.22,1.22,0,0,0,0,.13v8.45a1.26,1.26,0,0,0,.49,1l22.69,17.38,0,0,.08,0,.12.07.08,0,.14,0,.08,0,.23,0H491.64a1.26,1.26,0,0,0,1.26-1.26V23.55A1.26,1.26,0,0,0,491.64,22.29Z"/></clipPath><clipPath id="clip-path-2"><path class="cls-1" d="M401.66,39H385.17a1.26,1.26,0,0,0,0,2.52h16.49a1.26,1.26,0,0,0,0-2.52Z"/></clipPath><clipPath id="clip-path-3"><path class="cls-1" d="M426.78,39H410.28a1.26,1.26,0,0,0,0,2.52h16.49a1.26,1.26,0,0,0,0-2.52Z"/></clipPath><clipPath id="clip-path-4"><path class="cls-1" d="M451.89,39H435.4a1.26,1.26,0,0,0,0,2.52h16.49a1.26,1.26,0,0,0,0-2.52Z"/></clipPath><clipPath id="clip-path-5"><path class="cls-1" d="M459.26,40.23a1.26,1.26,0,0,0,1.26,1.26H477A1.26,1.26,0,0,0,477,39H460.52A1.26,1.26,0,0,0,459.26,40.23Z"/></clipPath><clipPath id="clip-path-6"><path class="cls-1" d="M401.66,45H385.17a1.26,1.26,0,0,0,0,2.52h16.49a1.26,1.26,0,0,0,0-2.52Z"/></clipPath><clipPath id="clip-path-7"><path class="cls-1" d="M426.78,45H410.28a1.26,1.26,0,0,0,0,2.52h16.49a1.26,1.26,0,0,0,0-2.52Z"/></clipPath><clipPath id="clip-path-8"><path class="cls-1" d="M451.89,45H435.4a1.26,1.26,0,0,0,0,2.52h16.49a1.26,1.26,0,0,0,0-2.52Z"/></clipPath><clipPath id="clip-path-9"><path class="cls-1" d="M477,45H460.52a1.26,1.26,0,0,0,0,2.52H477A1.26,1.26,0,0,0,477,45Z"/></clipPath><clipPath id="clip-path-10"><path class="cls-1" d="M401.66,51H385.17a1.26,1.26,0,0,0,0,2.52h16.49a1.26,1.26,0,0,0,0-2.52Z"/></clipPath><clipPath id="clip-path-11"><path class="cls-1" d="M426.78,51H410.28a1.26,1.26,0,0,0,0,2.52h16.49a1.26,1.26,0,0,0,0-2.52Z"/></clipPath><clipPath id="clip-path-12"><path class="cls-1" d="M451.89,51H435.4a1.26,1.26,0,0,0,0,2.52h16.49a1.26,1.26,0,0,0,0-2.52Z"/></clipPath><clipPath id="clip-path-13"><path class="cls-1" d="M477,51H460.52a1.26,1.26,0,0,0,0,2.52H477A1.26,1.26,0,0,0,477,51Z"/></clipPath><clipPath id="clip-path-14"><path class="cls-1" d="M401.66,57H385.17a1.26,1.26,0,0,0,0,2.52h16.49a1.26,1.26,0,0,0,0-2.52Z"/></clipPath><clipPath id="clip-path-15"><path class="cls-1" d="M426.78,57H410.28a1.26,1.26,0,0,0,0,2.52h16.49a1.26,1.26,0,0,0,0-2.52Z"/></clipPath><clipPath id="clip-path-16"><path class="cls-1" d="M451.89,57H435.4a1.26,1.26,0,0,0,0,2.52h16.49a1.26,1.26,0,0,0,0-2.52Z"/></clipPath><clipPath id="clip-path-17"><path class="cls-1" d="M477,57H460.52a1.26,1.26,0,0,0,0,2.52H477A1.26,1.26,0,0,0,477,57Z"/></clipPath><clipPath id="clip-path-18"><path class="cls-1" d="M401.66,63H385.17a1.26,1.26,0,0,0,0,2.52h16.49a1.26,1.26,0,0,0,0-2.52Z"/></clipPath><clipPath id="clip-path-19"><path class="cls-1" d="M426.78,63H410.28a1.26,1.26,0,0,0,0,2.52h16.49a1.26,1.26,0,0,0,0-2.52Z"/></clipPath><clipPath id="clip-path-20"><path class="cls-1" d="M451.89,63H435.4a1.26,1.26,0,0,0,0,2.52h16.49a1.26,1.26,0,0,0,0-2.52Z"/></clipPath><clipPath id="clip-path-21"><path class="cls-1" d="M477,63H460.52a1.26,1.26,0,0,0,0,2.52H477A1.26,1.26,0,0,0,477,63Z"/></clipPath></defs><title>furnace</title><rect class="cls-23" x="36.34" y="87.24" width="144.01" height="202.18"/><polyline class="cls-23" points="146.39 14.44 146.39 86.51 53.06 86.51 53.06 14.44"/><path class="cls-23" d="M36.18,87.24,17.91,88s.82,183.5,0,182.69l18.27,18.27Z"/><line class="cls-23" x1="40.78" y1="15.51" x2="40.78" y2="86.32"/><line class="cls-23" x1="51.78" y1="99.65" x2="105.26" y2="99.65"/><line class="cls-23" x1="111.43" y1="99.65" x2="164.91" y2="99.65"/><line class="cls-23" x1="51.78" y1="107.1" x2="105.26" y2="107.1"/><line class="cls-23" x1="111.43" y1="107.1" x2="164.91" y2="107.1"/><line class="cls-23" x1="51.78" y1="114.12" x2="105.26" y2="114.12"/><line class="cls-23" x1="111.43" y1="114.12" x2="164.91" y2="114.12"/><line class="cls-23" x1="51.78" y1="121.64" x2="105.26" y2="121.64"/><line class="cls-23" x1="111.43" y1="121.64" x2="164.91" y2="121.64"/><line class="cls-23" x1="51.78" y1="128.66" x2="105.26" y2="128.66"/><line class="cls-23" x1="111.43" y1="128.66" x2="164.91" y2="128.66"/></svg>