<svg id="Layer_1" data-name="Layer 1" xmlns="http://www.w3.org/2000/svg" xmlns:xlink="http://www.w3.org/1999/xlink" viewBox="0 0 1043.65 368.65"><defs><style>.cls-1{fill:#fff;}.cls-2{clip-path:url(#clip-path);}.cls-3{clip-path:url(#clip-path-2);}</style><clipPath id="clip-path"><path class="cls-1" d="M180.75,288.58s-8.42-31.29,13-65.72,55.52-80.45,34.56-112.18-48.73-40.23-48.73-40.23,9.06,5.66,2.83,31.73-35.69,68.56-44.76,81.59S100.3,255.72,180.75,288.58Z"/></clipPath><clipPath id="clip-path-2"><path class="cls-1" d="M117.82,241s-8.42-31.29,13-65.72,55.52-80.45,34.56-112.18-48.73-40.23-48.73-40.23,9.07,5.67,2.83,31.73-35.69,68.56-44.76,81.59S37.36,208.16,117.82,241Z"/></clipPath></defs><title>white-logo</title><path class="cls-1" d="M372.5,75.82a98.39,98.39,0,0,1,30.26,21.11l-28.15,28.15q-14.08-16.89-39.41-16.89t-32.37,12q-7,12,0,20.41t32.37,12.67a104.83,104.83,0,0,1,48.56,17.59q21.81,14.78,21.82,47.15,0,25.34-23.29,43.63T328,279.91q-29.42,0-49.12-8.44a106.44,106.44,0,0,1-33.78-22.52l28.15-28.15q14.07,16.89,47.86,19.71,28.15,0,35.12-12t0-23.93q-7-12-35.12-14.78a113.51,113.51,0,0,1-46.45-15.48q-21.11-12.67-21.11-43.63,0-28,24-45t49.33-17Q356.31,68.78,372.5,75.82Z"/><path class="cls-1" d="M509.37,229.94V139h39.41V279.91H509.37V267.1a49.08,49.08,0,0,1-33.78,12.67q-26.75,0-40.82-16.18a55.16,55.16,0,0,1-14.07-37.3V139h39.41v77.41q0,14.08,7,21.82t21.25,8.16Q500.64,245.57,509.37,229.94Z"/><path class="cls-1" d="M606.69,190.39v89.52H567.27V143.24L606.69,139v12.81a49.07,49.07,0,0,1,33.78-12.67q26.74,0,40.82,16.19a55.17,55.17,0,0,1,14.08,37.3v87.27H655.95V202.49q0-14.07-7-21.82t-21.25-8.16Q615.41,173.36,606.69,190.39Z"/><path class="cls-1" d="M752.28,190.39v89.52H712.87V143.24L752.28,139v12.81a49.07,49.07,0,0,1,33.78-12.67q26.74,0,40.82,16.19A55.17,55.17,0,0,1,841,192.64v87.27H801.54V202.49q0-14.07-7-21.82t-21.25-8.16Q761,173.36,752.28,190.39Z"/><path class="cls-1" d="M945.73,231.21V139.16h39.41V268.65q0,29.56-18.3,49.4t-43.63,21l-8.45.84Q885.2,339,861.28,316.5l18.3-21.11q16.89,12.67,32,14.08,18.3,0,26.25-9.15t8-26V267.1a51.36,51.36,0,0,1-34.48,12.81q-26.75,0-40.82-16.18a55.17,55.17,0,0,1-14.08-37.3V139.16h39.41v77.41q0,14.08,7,21.82t21.25,8.16Q936.44,245.71,945.73,231.21Z"/><path class="cls-1" d="M180.75,288.58s-8.42-31.29,13-65.72,55.52-80.45,34.56-112.18-48.73-40.23-48.73-40.23,9.06,5.66,2.83,31.73-35.69,68.56-44.76,81.59S100.3,255.72,180.75,288.58Z"/><g class="cls-2"><polygon class="cls-1" points="249.31 108.62 151.18 79.18 153.79 70.45 249.31 70.45 249.31 108.62"/><polygon class="cls-1" points="249.31 110.8 150.57 81.18 151.18 79.18 249.31 108.62 249.31 110.8"/><polygon class="cls-1" points="249.31 112.99 149.97 83.19 150.57 81.18 249.31 110.8 249.31 112.99"/><polygon class="cls-1" points="249.31 115.18 149.37 85.19 149.97 83.19 249.31 112.99 249.31 115.18"/><polygon class="cls-1" points="249.31 117.36 148.77 87.2 149.37 85.19 249.31 115.18 249.31 117.36"/><polygon class="cls-1" points="249.31 119.55 148.17 89.21 148.77 87.2 249.31 117.36 249.31 119.55"/><polygon class="cls-1" points="249.31 121.74 147.56 91.21 148.17 89.21 249.31 119.55 249.31 121.74"/><polygon class="cls-1" points="249.31 123.92 146.96 93.22 147.56 91.21 249.31 121.74 249.31 123.92"/><polygon class="cls-1" points="249.31 126.11 146.36 95.22 146.96 93.22 249.31 123.92 249.31 126.11"/><polygon class="cls-1" points="249.31 128.3 145.76 97.23 146.36 95.22 249.31 126.11 249.31 128.3"/><polygon class="cls-1" points="249.31 130.48 145.16 99.24 145.76 97.23 249.31 128.3 249.31 130.48"/><polygon class="cls-1" points="249.31 132.67 144.56 101.24 145.16 99.24 249.31 130.48 249.31 132.67"/><polygon class="cls-1" points="249.31 134.86 143.95 103.25 144.56 101.24 249.31 132.67 249.31 134.86"/><polygon class="cls-1" points="249.31 137.04 143.35 105.26 143.95 103.25 249.31 134.86 249.31 137.04"/><polygon class="cls-1" points="249.31 139.23 142.75 107.26 143.35 105.26 249.31 137.04 249.31 139.23"/><polygon class="cls-1" points="249.31 141.42 142.15 109.27 142.75 107.26 249.31 139.23 249.31 141.42"/><polygon class="cls-1" points="249.31 143.6 141.55 111.27 142.15 109.27 249.31 141.42 249.31 143.6"/><polygon class="cls-1" points="249.31 145.79 140.94 113.28 141.55 111.27 249.31 143.6 249.31 145.79"/><polygon class="cls-1" points="249.31 147.98 140.34 115.29 140.94 113.28 249.31 145.79 249.31 147.98"/><polygon class="cls-1" points="249.31 149.36 249.09 150.1 139.74 117.29 140.34 115.29 249.31 147.98 249.31 149.36"/><rect class="cls-1" x="193.07" y="77.62" width="2.09" height="114.16" transform="translate(9.32 281.92) rotate(-73.3)"/><rect class="cls-1" x="192.46" y="79.62" width="2.09" height="114.16" transform="translate(6.97 282.78) rotate(-73.3)"/><rect class="cls-1" x="191.86" y="81.63" width="2.09" height="114.16" transform="translate(4.61 283.62) rotate(-73.3)"/><rect class="cls-1" x="191.26" y="83.63" width="2.09" height="114.16" transform="translate(2.27 284.48) rotate(-73.3)"/><rect class="cls-1" x="190.66" y="85.64" width="2.09" height="114.16" transform="translate(-0.09 285.33) rotate(-73.3)"/><rect class="cls-1" x="190.06" y="87.65" width="2.09" height="114.16" transform="translate(-2.43 286.19) rotate(-73.3)"/><rect class="cls-1" x="189.46" y="89.65" width="2.09" height="114.16" transform="translate(-4.78 287.04) rotate(-73.3)"/><rect class="cls-1" x="188.85" y="91.66" width="2.09" height="114.16" transform="translate(-7.14 287.89) rotate(-73.3)"/><rect class="cls-1" x="188.25" y="93.67" width="2.09" height="114.16" transform="translate(-9.48 288.75) rotate(-73.3)"/><rect class="cls-1" x="187.65" y="95.67" width="2.09" height="114.16" transform="matrix(0.29, -0.96, 0.96, 0.29, -11.84, 289.59)"/><rect class="cls-1" x="187.05" y="97.68" width="2.09" height="114.16" transform="matrix(0.29, -0.96, 0.96, 0.29, -14.18, 290.46)"/><rect class="cls-1" x="186.45" y="99.68" width="2.09" height="114.16" transform="matrix(0.29, -0.96, 0.96, 0.29, -16.54, 291.3)"/><rect class="cls-1" x="185.84" y="101.69" width="2.09" height="114.16" transform="matrix(0.29, -0.96, 0.96, 0.29, -18.88, 292.16)"/><rect class="cls-1" x="185.24" y="103.7" width="2.09" height="114.16" transform="matrix(0.29, -0.96, 0.96, 0.29, -21.24, 293.01)"/><rect class="cls-1" x="184.64" y="105.7" width="2.09" height="114.16" transform="translate(-23.58 293.87) rotate(-73.3)"/><rect class="cls-1" x="184.04" y="107.71" width="2.09" height="114.16" transform="translate(-25.94 294.72) rotate(-73.3)"/><rect class="cls-1" x="183.44" y="109.71" width="2.09" height="114.16" transform="matrix(0.29, -0.96, 0.96, 0.29, -28.29, 295.56)"/><rect class="cls-1" x="182.84" y="111.72" width="2.09" height="114.16" transform="matrix(0.29, -0.96, 0.96, 0.29, -30.64, 296.43)"/><rect class="cls-1" x="182.23" y="113.73" width="2.09" height="114.16" transform="matrix(0.29, -0.96, 0.96, 0.29, -32.99, 297.27)"/><rect class="cls-1" x="181.63" y="115.73" width="2.09" height="114.16" transform="matrix(0.29, -0.96, 0.96, 0.29, -35.34, 298.14)"/><rect class="cls-1" x="181.03" y="117.74" width="2.09" height="114.16" transform="matrix(0.29, -0.96, 0.96, 0.29, -37.69, 298.98)"/><rect class="cls-1" x="180.43" y="119.75" width="2.09" height="114.16" transform="translate(-40.04 299.84) rotate(-73.3)"/><rect class="cls-1" x="179.83" y="121.75" width="2.09" height="114.16" transform="translate(-42.39 300.69) rotate(-73.3)"/><rect class="cls-1" x="179.22" y="123.76" width="2.09" height="114.16" transform="translate(-44.74 301.55) rotate(-73.3)"/><rect class="cls-1" x="178.62" y="125.76" width="2.09" height="114.16" transform="matrix(0.29, -0.96, 0.96, 0.29, -47.09, 302.4)"/><rect class="cls-1" x="178.02" y="127.77" width="2.09" height="114.16" transform="matrix(0.29, -0.96, 0.96, 0.29, -49.45, 303.24)"/><rect class="cls-1" x="177.42" y="129.78" width="2.09" height="114.16" transform="matrix(0.29, -0.96, 0.96, 0.29, -51.79, 304.11)"/><rect class="cls-1" x="176.82" y="131.78" width="2.09" height="114.16" transform="translate(-54.15 304.95) rotate(-73.3)"/><rect class="cls-1" x="176.21" y="133.79" width="2.09" height="114.16" transform="translate(-56.49 305.81) rotate(-73.3)"/><rect class="cls-1" x="175.61" y="135.79" width="2.09" height="114.16" transform="translate(-58.85 306.66) rotate(-73.3)"/><rect class="cls-1" x="175.01" y="137.8" width="2.09" height="114.16" transform="translate(-61.19 307.52) rotate(-73.3)"/><rect class="cls-1" x="174.41" y="139.81" width="2.09" height="114.16" transform="translate(-63.55 308.37) rotate(-73.3)"/><rect class="cls-1" x="173.81" y="141.81" width="2.09" height="114.16" transform="translate(-65.89 309.23) rotate(-73.3)"/><rect class="cls-1" x="173.21" y="143.82" width="2.09" height="114.16" transform="translate(-68.24 310.08) rotate(-73.3)"/><rect class="cls-1" x="172.6" y="145.83" width="2.09" height="114.16" transform="translate(-70.6 310.92) rotate(-73.3)"/><rect class="cls-1" x="172" y="147.83" width="2.09" height="114.16" transform="translate(-72.95 311.79) rotate(-73.3)"/><rect class="cls-1" x="171.4" y="149.84" width="2.09" height="114.16" transform="translate(-75.3 312.63) rotate(-73.3)"/><rect class="cls-1" x="170.8" y="151.84" width="2.09" height="114.16" transform="translate(-77.65 313.49) rotate(-73.3)"/><rect class="cls-1" x="170.2" y="153.85" width="2.09" height="114.16" transform="translate(-80 314.34) rotate(-73.3)"/><rect class="cls-1" x="169.59" y="155.86" width="2.09" height="114.16" transform="translate(-82.35 315.2) rotate(-73.3)"/><rect class="cls-1" x="168.99" y="157.86" width="2.09" height="114.16" transform="translate(-84.7 316.04) rotate(-73.3)"/><rect class="cls-1" x="168.39" y="159.87" width="2.09" height="114.16" transform="translate(-87.05 316.91) rotate(-73.3)"/><rect class="cls-1" x="167.79" y="161.87" width="2.09" height="114.16" transform="translate(-89.4 317.76) rotate(-73.3)"/><rect class="cls-1" x="167.19" y="163.88" width="2.09" height="114.16" transform="translate(-91.75 318.6) rotate(-73.3)"/><rect class="cls-1" x="166.59" y="165.89" width="2.09" height="114.16" transform="translate(-94.1 319.47) rotate(-73.3)"/><rect class="cls-1" x="165.98" y="167.89" width="2.09" height="114.16" transform="matrix(0.29, -0.96, 0.96, 0.29, -96.45, 320.31)"/><rect class="cls-1" x="165.38" y="169.9" width="2.09" height="114.16" transform="translate(-98.8 321.18) rotate(-73.3)"/><rect class="cls-1" x="164.78" y="171.9" width="2.09" height="114.16" transform="translate(-101.16 322.01) rotate(-73.3)"/><rect class="cls-1" x="164.18" y="173.91" width="2.09" height="114.16" transform="matrix(0.29, -0.96, 0.96, 0.29, -103.5, 322.88)"/><rect class="cls-1" x="163.58" y="175.92" width="2.09" height="114.16" transform="translate(-105.86 323.72) rotate(-73.3)"/><rect class="cls-1" x="162.97" y="177.92" width="2.09" height="114.16" transform="matrix(0.29, -0.96, 0.96, 0.29, -108.2, 324.59)"/><rect class="cls-1" x="162.37" y="179.93" width="2.09" height="114.16" transform="matrix(0.29, -0.96, 0.96, 0.29, -110.56, 325.43)"/><rect class="cls-1" x="161.77" y="181.94" width="2.09" height="114.16" transform="translate(-112.9 326.29) rotate(-73.3)"/><rect class="cls-1" x="161.17" y="183.94" width="2.09" height="114.16" transform="matrix(0.29, -0.96, 0.96, 0.29, -115.25, 327.15)"/><rect class="cls-1" x="160.57" y="185.95" width="2.09" height="114.16" transform="matrix(0.29, -0.96, 0.96, 0.29, -117.61, 327.98)"/><rect class="cls-1" x="159.97" y="187.95" width="2.09" height="114.16" transform="matrix(0.29, -0.96, 0.96, 0.29, -119.95, 328.85)"/><rect class="cls-1" x="159.36" y="189.96" width="2.09" height="114.16" transform="translate(-122.31 329.69) rotate(-73.3)"/><rect class="cls-1" x="158.76" y="191.97" width="2.09" height="114.16" transform="translate(-124.66 330.56) rotate(-73.3)"/><rect class="cls-1" x="158.16" y="193.97" width="2.09" height="114.16" transform="translate(-127.01 331.4) rotate(-73.3)"/><rect class="cls-1" x="157.56" y="195.98" width="2.09" height="114.16" transform="translate(-129.36 332.27) rotate(-73.3)"/><rect class="cls-1" x="156.96" y="197.98" width="2.09" height="114.16" transform="translate(-131.71 333.11) rotate(-73.3)"/><rect class="cls-1" x="156.35" y="199.99" width="2.09" height="114.16" transform="translate(-134.06 333.97) rotate(-73.3)"/><rect class="cls-1" x="155.75" y="202" width="2.09" height="114.16" transform="matrix(0.29, -0.96, 0.96, 0.29, -136.41, 334.83)"/><rect class="cls-1" x="155.15" y="204" width="2.09" height="114.16" transform="matrix(0.29, -0.96, 0.96, 0.29, -138.76, 335.66)"/><rect class="cls-1" x="154.55" y="206.01" width="2.09" height="114.16" transform="translate(-141.11 336.53) rotate(-73.3)"/><polygon class="cls-1" points="209.97 280.5 209.37 282.5 100.3 249.78 100.3 248.76 100.62 247.69 209.97 280.5"/><polygon class="cls-1" points="209.37 282.5 208.76 284.51 100.3 251.97 100.3 249.78 209.37 282.5"/><polygon class="cls-1" points="208.76 284.51 208.16 286.51 100.3 254.16 100.3 251.97 208.76 284.51"/><polygon class="cls-1" points="208.16 286.51 207.56 288.52 100.3 256.34 100.3 254.16 208.16 286.51"/><polygon class="cls-1" points="207.56 288.52 207.54 288.58 200.46 288.58 100.3 258.53 100.3 256.34 207.56 288.52"/><polygon class="cls-1" points="193.18 288.58 100.3 260.72 100.3 258.53 200.46 288.58 193.18 288.58"/><polygon class="cls-1" points="185.89 288.58 100.3 262.9 100.3 260.72 193.18 288.58 185.89 288.58"/><polygon class="cls-1" points="178.6 288.58 100.3 265.09 100.3 262.9 185.89 288.58 178.6 288.58"/><polygon class="cls-1" points="171.31 288.58 100.3 267.28 100.3 265.09 178.6 288.58 171.31 288.58"/><polygon class="cls-1" points="164.02 288.58 100.3 269.46 100.3 267.28 171.31 288.58 164.02 288.58"/><polygon class="cls-1" points="156.73 288.58 100.3 271.65 100.3 269.46 164.02 288.58 156.73 288.58"/><polygon class="cls-1" points="149.44 288.58 100.3 273.84 100.3 271.65 156.73 288.58 149.44 288.58"/><polygon class="cls-1" points="142.15 288.58 100.3 276.02 100.3 273.84 149.44 288.58 142.15 288.58"/><polygon class="cls-1" points="134.86 288.58 100.3 278.21 100.3 276.02 142.15 288.58 134.86 288.58"/><polygon class="cls-1" points="127.57 288.58 100.3 280.4 100.3 278.21 134.86 288.58 127.57 288.58"/><polygon class="cls-1" points="120.28 288.58 100.3 282.58 100.3 280.4 127.57 288.58 120.28 288.58"/><polygon class="cls-1" points="113 288.58 100.3 284.77 100.3 282.58 120.28 288.58 113 288.58"/><polygon class="cls-1" points="105.71 288.58 100.3 286.96 100.3 284.77 113 288.58 105.71 288.58"/><polygon class="cls-1" points="100.3 286.96 105.71 288.58 100.3 288.58 100.3 286.96"/></g><path class="cls-1" d="M117.82,241s-8.42-31.29,13-65.72,55.52-80.45,34.56-112.18-48.73-40.23-48.73-40.23,9.07,5.67,2.83,31.73-35.69,68.56-44.76,81.59S37.36,208.16,117.82,241Z"/><g class="cls-3"><polygon class="cls-1" points="186.37 38.02 147.04 22.89 186.37 22.89 186.37 38.02"/><polygon class="cls-1" points="186.37 39.13 144.15 22.89 147.04 22.89 186.37 38.02 186.37 39.13"/><polygon class="cls-1" points="186.37 40.25 141.25 22.89 144.15 22.89 186.37 39.13 186.37 40.25"/><polygon class="cls-1" points="186.37 41.36 138.36 22.89 141.25 22.89 186.37 40.25 186.37 41.36"/><polygon class="cls-1" points="186.37 42.47 135.47 22.89 138.36 22.89 186.37 41.36 186.37 42.47"/><polygon class="cls-1" points="186.37 43.58 132.58 22.89 135.47 22.89 186.37 42.47 186.37 43.58"/><polygon class="cls-1" points="186.37 44.69 129.69 22.89 132.58 22.89 186.37 43.58 186.37 44.69"/><polygon class="cls-1" points="186.37 45.81 126.8 22.89 129.69 22.89 186.37 44.69 186.37 45.81"/><polygon class="cls-1" points="186.37 46.92 123.91 22.89 126.8 22.89 186.37 45.81 186.37 46.92"/><polygon class="cls-1" points="186.37 48.03 121.02 22.89 123.91 22.89 186.37 46.92 186.37 48.03"/><polygon class="cls-1" points="186.37 49.14 118.13 22.89 121.02 22.89 186.37 48.03 186.37 49.14"/><polygon class="cls-1" points="186.37 50.25 115.23 22.89 118.13 22.89 186.37 49.14 186.37 50.25"/><polygon class="cls-1" points="186.37 51.37 112.34 22.89 115.23 22.89 186.37 50.25 186.37 51.37"/><polygon class="cls-1" points="186.37 52.48 109.45 22.89 112.34 22.89 186.37 51.37 186.37 52.48"/><polygon class="cls-1" points="186.37 53.59 106.56 22.89 109.45 22.89 186.37 52.48 186.37 53.59"/><polygon class="cls-1" points="186.37 54.7 106.12 23.83 106.48 22.89 106.56 22.89 186.37 53.59 186.37 54.7"/><polygon class="cls-1" points="186.37 55.81 105.74 24.8 106.12 23.83 186.37 54.7 186.37 55.81"/><polygon class="cls-1" points="186.37 56.92 105.37 25.77 105.74 24.8 186.37 55.81 186.37 56.92"/><polygon class="cls-1" points="186.37 58.04 105 26.74 105.37 25.77 186.37 56.92 186.37 58.04"/><polygon class="cls-1" points="186.37 59.15 104.63 27.71 105 26.74 186.37 58.04 186.37 59.15"/><polygon class="cls-1" points="186.37 60.26 104.25 28.68 104.63 27.71 186.37 59.15 186.37 60.26"/><polygon class="cls-1" points="186.37 61.37 103.88 29.65 104.25 28.68 186.37 60.26 186.37 61.37"/><polygon class="cls-1" points="186.37 62.48 103.51 30.61 103.88 29.65 186.37 61.37 186.37 62.48"/><polygon class="cls-1" points="186.37 63.6 103.14 31.58 103.51 30.61 186.37 62.48 186.37 63.6"/><polygon class="cls-1" points="186.37 64.71 102.76 32.55 103.14 31.58 186.37 63.6 186.37 64.71"/><polygon class="cls-1" points="186.37 65.82 102.39 33.52 102.76 32.55 186.37 64.71 186.37 65.82"/><polygon class="cls-1" points="186.37 66.93 102.02 34.49 102.39 33.52 186.37 65.82 186.37 66.93"/><polygon class="cls-1" points="186.37 68.05 101.65 35.46 102.02 34.49 186.37 66.93 186.37 68.05"/><polygon class="cls-1" points="186.37 69.16 101.27 36.43 101.65 35.46 186.37 68.05 186.37 69.16"/><polygon class="cls-1" points="186.37 70.27 100.9 37.4 101.27 36.43 186.37 69.16 186.37 70.27"/><polygon class="cls-1" points="186.37 71.38 100.53 38.36 100.9 37.4 186.37 70.27 186.37 71.38"/><polygon class="cls-1" points="186.37 72.49 100.16 39.33 100.53 38.36 186.37 71.38 186.37 72.49"/><polygon class="cls-1" points="186.37 73.61 99.78 40.3 100.16 39.33 186.37 72.49 186.37 73.61"/><polygon class="cls-1" points="186.37 74.72 99.41 41.27 99.78 40.3 186.37 73.61 186.37 74.72"/><polygon class="cls-1" points="186.37 75.83 99.04 42.24 99.41 41.27 186.37 74.72 186.37 75.83"/><polygon class="cls-1" points="186.37 76.94 98.67 43.21 99.04 42.24 186.37 75.83 186.37 76.94"/><polygon class="cls-1" points="186.37 78.05 98.29 44.18 98.67 43.21 186.37 76.94 186.37 78.05"/><polygon class="cls-1" points="186.37 79.17 97.92 45.15 98.29 44.18 186.37 78.05 186.37 79.17"/><polygon class="cls-1" points="186.37 80.28 97.55 46.11 97.92 45.15 186.37 79.17 186.37 80.28"/><polygon class="cls-1" points="186.37 81.39 97.17 47.08 97.55 46.11 186.37 80.28 186.37 81.39"/><polygon class="cls-1" points="186.37 82.5 96.8 48.05 97.17 47.08 186.37 81.39 186.37 82.5"/><polygon class="cls-1" points="186.37 83.61 96.43 49.02 96.8 48.05 186.37 82.5 186.37 83.61"/><polygon class="cls-1" points="186.37 84.72 96.06 49.99 96.43 49.02 186.37 83.61 186.37 84.72"/><polygon class="cls-1" points="186.37 85.84 95.69 50.96 96.06 49.99 186.37 84.72 186.37 85.84"/><polygon class="cls-1" points="186.37 86.95 95.31 51.93 95.69 50.96 186.37 85.84 186.37 86.95"/><polygon class="cls-1" points="186.37 88.06 94.94 52.9 95.31 51.93 186.37 86.95 186.37 88.06"/><polygon class="cls-1" points="186.37 89.17 94.57 53.86 94.94 52.9 186.37 88.06 186.37 89.17"/><polygon class="cls-1" points="186.37 90.28 94.19 54.83 94.57 53.86 186.37 89.17 186.37 90.28"/><polygon class="cls-1" points="186.37 91.4 93.82 55.8 94.19 54.83 186.37 90.28 186.37 91.4"/><polygon class="cls-1" points="186.37 92.51 93.45 56.77 93.82 55.8 186.37 91.4 186.37 92.51"/><polygon class="cls-1" points="186.37 93.62 93.08 57.74 93.45 56.77 186.37 92.51 186.37 93.62"/><polygon class="cls-1" points="186.37 94.73 92.7 58.71 93.08 57.74 186.37 93.62 186.37 94.73"/><polygon class="cls-1" points="186.37 95.84 92.33 59.67 92.7 58.71 186.37 94.73 186.37 95.84"/><polygon class="cls-1" points="186.37 96.96 91.96 60.64 92.33 59.67 186.37 95.84 186.37 96.96"/><polygon class="cls-1" points="186.37 98.07 91.59 61.61 91.96 60.64 186.37 96.96 186.37 98.07"/><polygon class="cls-1" points="186.37 99.18 91.21 62.58 91.59 61.61 186.37 98.07 186.37 99.18"/><polygon class="cls-1" points="186.37 100.29 90.84 63.55 91.21 62.58 186.37 99.18 186.37 100.29"/><polygon class="cls-1" points="186.37 100.42 186.04 101.28 90.47 64.52 90.84 63.55 186.37 100.29 186.37 100.42"/><rect class="cls-1" x="137.55" y="32.18" width="1.04" height="102.4" transform="translate(10.68 182.32) rotate(-68.96)"/><rect class="cls-1" x="137.18" y="33.15" width="1.04" height="102.4" transform="translate(9.54 182.59) rotate(-68.96)"/><rect class="cls-1" x="136.81" y="34.12" width="1.04" height="102.4" transform="translate(8.39 182.86) rotate(-68.96)"/><rect class="cls-1" x="136.43" y="35.09" width="1.04" height="102.4" transform="translate(7.26 183.14) rotate(-68.97)"/><rect class="cls-1" x="136.06" y="36.06" width="1.04" height="102.4" transform="translate(6.1 183.4) rotate(-68.96)"/><rect class="cls-1" x="135.69" y="37.03" width="1.04" height="102.4" transform="translate(4.96 183.68) rotate(-68.96)"/><rect class="cls-1" x="135.32" y="38" width="1.04" height="102.4" transform="matrix(0.36, -0.93, 0.93, 0.36, 3.83, 183.96)"/><rect class="cls-1" x="134.94" y="38.96" width="1.04" height="102.4" transform="translate(2.68 184.23) rotate(-68.96)"/><rect class="cls-1" x="134.57" y="39.93" width="1.04" height="102.4" transform="translate(1.54 184.5) rotate(-68.96)"/><rect class="cls-1" x="134.2" y="40.9" width="1.04" height="102.4" transform="translate(0.4 184.78) rotate(-68.96)"/><rect class="cls-1" x="133.82" y="41.87" width="1.04" height="102.4" transform="translate(-0.75 185.05) rotate(-68.96)"/><rect class="cls-1" x="133.45" y="42.84" width="1.04" height="102.4" transform="translate(-1.89 185.32) rotate(-68.96)"/><rect class="cls-1" x="133.08" y="43.81" width="1.04" height="102.4" transform="translate(-3.03 185.6) rotate(-68.97)"/><rect class="cls-1" x="132.71" y="44.78" width="1.04" height="102.4" transform="translate(-4.18 185.86) rotate(-68.96)"/><rect class="cls-1" x="132.33" y="45.74" width="1.04" height="102.4" transform="translate(-5.32 186.14) rotate(-68.96)"/><rect class="cls-1" x="131.96" y="46.71" width="1.04" height="102.4" transform="matrix(0.36, -0.93, 0.93, 0.36, -6.46, 186.42)"/><rect class="cls-1" x="131.59" y="47.68" width="1.04" height="102.4" transform="translate(-7.61 186.68) rotate(-68.96)"/><rect class="cls-1" x="131.22" y="48.65" width="1.04" height="102.4" transform="translate(-8.75 186.95) rotate(-68.96)"/><rect class="cls-1" x="130.84" y="49.62" width="1.04" height="102.4" transform="translate(-9.89 187.24) rotate(-68.97)"/><rect class="cls-1" x="130.47" y="50.59" width="1.04" height="102.4" transform="translate(-11.04 187.5) rotate(-68.96)"/><rect class="cls-1" x="130.1" y="51.56" width="1.04" height="102.4" transform="matrix(0.36, -0.93, 0.93, 0.36, -12.17, 187.79)"/><rect class="cls-1" x="129.73" y="52.53" width="1.04" height="102.4" transform="translate(-13.32 188.05) rotate(-68.96)"/><rect class="cls-1" x="129.35" y="53.49" width="1.04" height="102.4" transform="translate(-14.47 188.32) rotate(-68.96)"/><rect class="cls-1" x="128.98" y="54.46" width="1.04" height="102.4" transform="translate(-15.6 188.61) rotate(-68.97)"/><rect class="cls-1" x="128.61" y="55.43" width="1.04" height="102.4" transform="translate(-16.75 188.87) rotate(-68.96)"/><rect class="cls-1" x="128.24" y="56.4" width="1.04" height="102.4" transform="translate(-17.89 189.14) rotate(-68.96)"/><rect class="cls-1" x="127.86" y="57.37" width="1.04" height="102.4" transform="translate(-19.03 189.42) rotate(-68.96)"/><rect class="cls-1" x="127.49" y="58.34" width="1.04" height="102.4" transform="translate(-20.18 189.69) rotate(-68.96)"/><rect class="cls-1" x="127.12" y="59.31" width="1.04" height="102.4" transform="translate(-21.32 189.96) rotate(-68.96)"/><rect class="cls-1" x="126.75" y="60.27" width="1.04" height="102.4" transform="matrix(0.36, -0.93, 0.93, 0.36, -22.46, 190.25)"/><rect class="cls-1" x="126.37" y="61.24" width="1.04" height="102.4" transform="translate(-23.61 190.5) rotate(-68.96)"/><rect class="cls-1" x="126" y="62.21" width="1.04" height="102.4" transform="translate(-24.75 190.78) rotate(-68.96)"/><rect class="cls-1" x="125.63" y="63.18" width="1.04" height="102.4" transform="matrix(0.36, -0.93, 0.93, 0.36, -25.89, 191.07)"/><rect class="cls-1" x="125.26" y="64.15" width="1.04" height="102.4" transform="translate(-27.04 191.33) rotate(-68.96)"/><rect class="cls-1" x="124.88" y="65.12" width="1.04" height="102.4" transform="translate(-28.18 191.6) rotate(-68.96)"/><rect class="cls-1" x="124.51" y="66.09" width="1.04" height="102.4" transform="translate(-29.32 191.88) rotate(-68.96)"/><rect class="cls-1" x="124.14" y="67.06" width="1.04" height="102.4" transform="translate(-30.47 192.15) rotate(-68.96)"/><rect class="cls-1" x="123.77" y="68.02" width="1.04" height="102.4" transform="translate(-31.61 192.42) rotate(-68.96)"/><rect class="cls-1" x="123.39" y="68.99" width="1.04" height="102.4" transform="matrix(0.36, -0.93, 0.93, 0.36, -32.75, 192.71)"/><rect class="cls-1" x="123.02" y="69.96" width="1.04" height="102.4" transform="translate(-33.9 192.96) rotate(-68.96)"/><rect class="cls-1" x="122.65" y="70.93" width="1.04" height="102.4" transform="translate(-35.04 193.24) rotate(-68.96)"/><rect class="cls-1" x="122.28" y="71.9" width="1.04" height="102.4" transform="matrix(0.36, -0.93, 0.93, 0.36, -36.17, 193.53)"/><rect class="cls-1" x="121.9" y="72.87" width="1.04" height="102.4" transform="translate(-37.32 193.79) rotate(-68.96)"/><rect class="cls-1" x="121.53" y="73.84" width="1.04" height="102.4" transform="translate(-38.47 194.06) rotate(-68.96)"/><rect class="cls-1" x="121.16" y="74.8" width="1.04" height="102.4" transform="matrix(0.36, -0.93, 0.93, 0.36, -39.6, 194.35)"/><rect class="cls-1" x="120.79" y="75.77" width="1.04" height="102.4" transform="translate(-40.75 194.61) rotate(-68.96)"/><rect class="cls-1" x="120.41" y="76.74" width="1.04" height="102.4" transform="translate(-41.9 194.88) rotate(-68.96)"/><rect class="cls-1" x="120.04" y="77.71" width="1.04" height="102.4" transform="matrix(0.36, -0.93, 0.93, 0.36, -43.03, 195.17)"/><rect class="cls-1" x="119.67" y="78.68" width="1.04" height="102.4" transform="translate(-44.18 195.42) rotate(-68.96)"/><rect class="cls-1" x="119.29" y="79.65" width="1.04" height="102.4" transform="translate(-45.32 195.7) rotate(-68.96)"/><rect class="cls-1" x="118.92" y="80.62" width="1.04" height="102.4" transform="translate(-46.46 195.99) rotate(-68.97)"/><rect class="cls-1" x="118.55" y="81.59" width="1.04" height="102.4" transform="translate(-47.61 196.25) rotate(-68.96)"/><rect class="cls-1" x="118.18" y="82.55" width="1.04" height="102.4" transform="translate(-48.76 196.51) rotate(-68.96)"/><rect class="cls-1" x="117.8" y="83.52" width="1.04" height="102.4" transform="matrix(0.36, -0.93, 0.93, 0.36, -49.89, 196.81)"/><rect class="cls-1" x="117.43" y="84.49" width="1.04" height="102.4" transform="translate(-51.04 197.07) rotate(-68.96)"/><rect class="cls-1" x="117.06" y="85.46" width="1.04" height="102.4" transform="translate(-52.18 197.34) rotate(-68.96)"/><rect class="cls-1" x="116.69" y="86.43" width="1.04" height="102.4" transform="translate(-53.32 197.62) rotate(-68.96)"/><rect class="cls-1" x="116.31" y="87.4" width="1.04" height="102.4" transform="translate(-54.47 197.89) rotate(-68.96)"/><rect class="cls-1" x="115.94" y="88.37" width="1.04" height="102.4" transform="translate(-55.61 198.16) rotate(-68.96)"/><rect class="cls-1" x="115.57" y="89.34" width="1.04" height="102.4" transform="matrix(0.36, -0.93, 0.93, 0.36, -56.75, 198.45)"/><rect class="cls-1" x="115.2" y="90.3" width="1.04" height="102.4" transform="translate(-57.9 198.7) rotate(-68.96)"/><rect class="cls-1" x="114.82" y="91.27" width="1.04" height="102.4" transform="translate(-59.03 198.99) rotate(-68.97)"/><rect class="cls-1" x="114.45" y="92.24" width="1.04" height="102.4" transform="translate(-60.18 199.25) rotate(-68.96)"/><rect class="cls-1" x="114.08" y="93.21" width="1.04" height="102.4" transform="translate(-61.32 199.52) rotate(-68.96)"/><rect class="cls-1" x="113.71" y="94.18" width="1.04" height="102.4" transform="translate(-62.46 199.81) rotate(-68.97)"/><rect class="cls-1" x="113.33" y="95.15" width="1.04" height="102.4" transform="translate(-63.61 200.07) rotate(-68.96)"/><rect class="cls-1" x="112.96" y="96.12" width="1.04" height="102.4" transform="translate(-64.75 200.34) rotate(-68.96)"/><rect class="cls-1" x="112.59" y="97.08" width="1.04" height="102.4" transform="translate(-65.89 200.64) rotate(-68.97)"/><rect class="cls-1" x="112.22" y="98.05" width="1.04" height="102.4" transform="translate(-67.04 200.89) rotate(-68.96)"/><rect class="cls-1" x="111.84" y="99.02" width="1.04" height="102.4" transform="translate(-68.18 201.16) rotate(-68.96)"/><rect class="cls-1" x="111.47" y="99.99" width="1.04" height="102.4" transform="translate(-69.32 201.45) rotate(-68.97)"/><rect class="cls-1" x="111.1" y="100.96" width="1.04" height="102.4" transform="translate(-70.47 201.71) rotate(-68.96)"/><rect class="cls-1" x="110.73" y="101.93" width="1.04" height="102.4" transform="translate(-71.61 201.98) rotate(-68.96)"/><rect class="cls-1" x="110.35" y="102.9" width="1.04" height="102.4" transform="translate(-72.75 202.27) rotate(-68.96)"/><rect class="cls-1" x="109.98" y="103.87" width="1.04" height="102.4" transform="translate(-73.9 202.53) rotate(-68.96)"/><rect class="cls-1" x="109.61" y="104.83" width="1.04" height="102.4" transform="translate(-75.04 202.8) rotate(-68.96)"/><rect class="cls-1" x="109.24" y="105.8" width="1.04" height="102.4" transform="translate(-76.18 203.09) rotate(-68.97)"/><rect class="cls-1" x="108.86" y="106.77" width="1.04" height="102.4" transform="translate(-77.33 203.35) rotate(-68.96)"/><rect class="cls-1" x="108.49" y="107.74" width="1.04" height="102.4" transform="translate(-78.47 203.62) rotate(-68.96)"/><rect class="cls-1" x="108.12" y="108.71" width="1.04" height="102.4" transform="translate(-79.61 203.91) rotate(-68.97)"/><rect class="cls-1" x="107.75" y="109.68" width="1.04" height="102.4" transform="translate(-80.75 204.17) rotate(-68.96)"/><rect class="cls-1" x="107.37" y="110.65" width="1.04" height="102.4" transform="translate(-81.9 204.44) rotate(-68.96)"/><rect class="cls-1" x="107" y="111.61" width="1.04" height="102.4" transform="translate(-83.04 204.72) rotate(-68.96)"/><rect class="cls-1" x="106.63" y="112.58" width="1.04" height="102.4" transform="translate(-84.18 204.99) rotate(-68.96)"/><rect class="cls-1" x="106.25" y="113.55" width="1.04" height="102.4" transform="translate(-85.33 205.26) rotate(-68.96)"/><rect class="cls-1" x="105.88" y="114.52" width="1.04" height="102.4" transform="translate(-86.47 205.55) rotate(-68.97)"/><rect class="cls-1" x="105.51" y="115.49" width="1.04" height="102.4" transform="translate(-87.61 205.8) rotate(-68.96)"/><rect class="cls-1" x="105.14" y="116.46" width="1.04" height="102.4" transform="translate(-88.75 206.08) rotate(-68.96)"/><rect class="cls-1" x="104.76" y="117.43" width="1.04" height="102.4" transform="translate(-89.89 206.37) rotate(-68.97)"/><rect class="cls-1" x="104.39" y="118.4" width="1.04" height="102.4" transform="translate(-91.04 206.63) rotate(-68.96)"/><rect class="cls-1" x="104.02" y="119.36" width="1.04" height="102.4" transform="translate(-92.18 206.9) rotate(-68.96)"/><rect class="cls-1" x="103.65" y="120.33" width="1.04" height="102.4" transform="translate(-93.32 207.19) rotate(-68.96)"/><rect class="cls-1" x="103.27" y="121.3" width="1.04" height="102.4" transform="translate(-94.47 207.45) rotate(-68.96)"/><rect class="cls-1" x="102.9" y="122.27" width="1.04" height="102.4" transform="translate(-95.61 207.72) rotate(-68.96)"/><rect class="cls-1" x="102.53" y="123.24" width="1.04" height="102.4" transform="translate(-96.75 208.01) rotate(-68.97)"/><rect class="cls-1" x="102.16" y="124.21" width="1.04" height="102.4" transform="translate(-97.9 208.26) rotate(-68.96)"/><rect class="cls-1" x="101.78" y="125.18" width="1.04" height="102.4" transform="translate(-99.04 208.54) rotate(-68.96)"/><rect class="cls-1" x="101.41" y="126.14" width="1.04" height="102.4" transform="translate(-100.18 208.83) rotate(-68.97)"/><rect class="cls-1" x="101.04" y="127.11" width="1.04" height="102.4" transform="translate(-101.33 209.09) rotate(-68.96)"/><rect class="cls-1" x="100.67" y="128.08" width="1.04" height="102.4" transform="translate(-102.47 209.35) rotate(-68.96)"/><rect class="cls-1" x="100.29" y="129.05" width="1.04" height="102.4" transform="translate(-103.61 209.65) rotate(-68.97)"/><rect class="cls-1" x="99.92" y="130.02" width="1.04" height="102.4" transform="translate(-104.76 209.91) rotate(-68.96)"/><rect class="cls-1" x="99.55" y="130.99" width="1.04" height="102.4" transform="translate(-105.9 210.18) rotate(-68.96)"/><rect class="cls-1" x="99.18" y="131.96" width="1.04" height="102.4" transform="translate(-107.04 210.47) rotate(-68.97)"/><rect class="cls-1" x="98.8" y="132.93" width="1.04" height="102.4" transform="translate(-108.19 210.72) rotate(-68.96)"/><rect class="cls-1" x="98.43" y="133.89" width="1.04" height="102.4" transform="translate(-109.33 211.02) rotate(-68.97)"/><rect class="cls-1" x="98.06" y="134.86" width="1.04" height="102.4" transform="translate(-110.47 211.27) rotate(-68.96)"/><rect class="cls-1" x="97.69" y="135.83" width="1.04" height="102.4" transform="translate(-111.61 211.54) rotate(-68.96)"/><rect class="cls-1" x="97.31" y="136.8" width="1.04" height="102.4" transform="translate(-112.75 211.83) rotate(-68.96)"/><rect class="cls-1" x="96.94" y="137.77" width="1.04" height="102.4" transform="translate(-113.9 212.09) rotate(-68.96)"/><rect class="cls-1" x="96.57" y="138.74" width="1.04" height="102.4" transform="translate(-115.04 212.36) rotate(-68.96)"/><rect class="cls-1" x="96.2" y="139.71" width="1.04" height="102.4" transform="translate(-116.18 212.66) rotate(-68.97)"/><rect class="cls-1" x="95.82" y="140.67" width="1.04" height="102.4" transform="translate(-117.33 212.9) rotate(-68.96)"/><rect class="cls-1" x="95.45" y="141.64" width="1.04" height="102.4" transform="translate(-118.47 213.18) rotate(-68.96)"/><rect class="cls-1" x="95.08" y="142.61" width="1.04" height="102.4" transform="translate(-119.61 213.48) rotate(-68.97)"/><rect class="cls-1" x="94.71" y="143.58" width="1.04" height="102.4" transform="translate(-120.76 213.73) rotate(-68.96)"/><rect class="cls-1" x="94.33" y="144.55" width="1.04" height="102.4" transform="translate(-121.9 214) rotate(-68.96)"/><rect class="cls-1" x="93.96" y="145.52" width="1.04" height="102.4" transform="translate(-123.04 214.29) rotate(-68.96)"/><rect class="cls-1" x="93.59" y="146.49" width="1.04" height="102.4" transform="translate(-124.19 214.55) rotate(-68.96)"/><rect class="cls-1" x="93.22" y="147.46" width="1.04" height="102.4" transform="translate(-125.33 214.82) rotate(-68.96)"/><rect class="cls-1" x="92.84" y="148.42" width="1.04" height="102.4" transform="translate(-126.47 215.12) rotate(-68.97)"/><rect class="cls-1" x="92.47" y="149.39" width="1.04" height="102.4" transform="translate(-127.61 215.36) rotate(-68.96)"/><rect class="cls-1" x="92.1" y="150.36" width="1.04" height="102.4" transform="translate(-128.76 215.64) rotate(-68.96)"/><rect class="cls-1" x="91.72" y="151.33" width="1.04" height="102.4" transform="translate(-129.9 215.94) rotate(-68.97)"/><rect class="cls-1" x="91.35" y="152.3" width="1.04" height="102.4" transform="translate(-131.04 216.19) rotate(-68.96)"/><rect class="cls-1" x="90.98" y="153.27" width="1.04" height="102.4" transform="translate(-132.19 216.46) rotate(-68.96)"/><rect class="cls-1" x="90.61" y="154.24" width="1.04" height="102.4" transform="translate(-133.33 216.76) rotate(-68.97)"/><rect class="cls-1" x="90.23" y="155.21" width="1.04" height="102.4" transform="translate(-134.47 217.01) rotate(-68.96)"/><rect class="cls-1" x="89.86" y="156.17" width="1.04" height="102.4" transform="translate(-135.61 217.28) rotate(-68.96)"/><rect class="cls-1" x="89.49" y="157.14" width="1.04" height="102.4" transform="translate(-136.76 217.58) rotate(-68.97)"/><rect class="cls-1" x="89.12" y="158.11" width="1.04" height="102.4" transform="translate(-137.9 217.82) rotate(-68.96)"/><rect class="cls-1" x="88.74" y="159.08" width="1.04" height="102.4" transform="translate(-139.04 218.1) rotate(-68.96)"/><polygon class="cls-1" points="136.86 229.14 132.29 241.03 37.36 241.03 37.36 202.59 41.29 192.38 136.86 229.14"/></g></svg>