<svg id="Layer_1" data-name="Layer 1" xmlns="http://www.w3.org/2000/svg" xmlns:xlink="http://www.w3.org/1999/xlink" viewBox="0 0 958.21 358.54"><defs><style>.cls-1{fill:none;}.cls-2{fill:#58595b;}.cls-3{clip-path:url(#clip-path);}.cls-4{fill:#fcb125;}.cls-5{fill:#fcb025;}.cls-6{fill:#fbaf26;}.cls-7{fill:#fbae26;}.cls-8{fill:#fbad26;}.cls-9{fill:#fbac26;}.cls-10{fill:#fbab26;}.cls-11{fill:#fbaa26;}.cls-12{fill:#fba926;}.cls-13{fill:#faa826;}.cls-14{fill:#faa827;}.cls-15{fill:#faa727;}.cls-16{fill:#faa627;}.cls-17{fill:#faa527;}.cls-18{fill:#faa427;}.cls-19{fill:#faa327;}.cls-20{fill:#faa227;}.cls-21{fill:#f9a127;}.cls-22{fill:#f9a027;}.cls-23{fill:#f99f27;}.cls-24{fill:#f99e27;}.cls-25{fill:#f99d27;}.cls-26{fill:#f99c27;}.cls-27{fill:#f99b28;}.cls-28{fill:#f89b28;}.cls-29{fill:#f89a28;}.cls-30{fill:#f89928;}.cls-31{fill:#f89828;}.cls-32{fill:#f89728;}.cls-33{fill:#f89628;}.cls-34{fill:#f89528;}.cls-35{fill:#f79428;}.cls-36{fill:#f79328;}.cls-37{fill:#f79228;}.cls-38{fill:#f79128;}.cls-39{fill:#f79028;}.cls-40{fill:#f78f28;}.cls-41{fill:#f78e28;}.cls-42{fill:#f78d28;}.cls-43{fill:#f78c28;}.cls-44{fill:#f68c28;}.cls-45{fill:#f68b28;}.cls-46{fill:#f68a28;}.cls-47{fill:#f68928;}.cls-48{fill:#f68828;}.cls-49{fill:#f68728;}.cls-50{fill:#f68628;}.cls-51{fill:#f68528;}.cls-52{fill:#f58429;}.cls-53{fill:#f58329;}.cls-54{fill:#f58229;}.cls-55{fill:#f58129;}.cls-56{fill:#f58029;}.cls-57{fill:#f57f29;}.cls-58{fill:#f57e29;}.cls-59{fill:#f47d29;}.cls-60{fill:#f47c29;}.cls-61{fill:#f47b29;}.cls-62{fill:#f47a29;}.cls-63{fill:#f47929;}.cls-64{fill:#f47829;}.cls-65{fill:#f47729;}.cls-66{fill:#f47629;}.cls-67{fill:#f47529;}.cls-68{fill:#f47429;}.cls-69{fill:#f37329;}.cls-70{fill:#f37229;}.cls-71{fill:#f37129;}.cls-72{fill:#f37029;}.cls-73{fill:#f36f29;}.cls-74{fill:#f36e29;}.cls-75{fill:#f36d29;}.cls-76{fill:#f36c29;}.cls-77{fill:#f36b29;}.cls-78{fill:#f26a29;}.cls-79{fill:#f26929;}.cls-80{fill:#f26829;}.cls-81{fill:#f26729;}.cls-82{fill:#f26629;}.cls-83{clip-path:url(#clip-path-2);}.cls-84{fill:#27aae1;}.cls-85{fill:#27a9e0;}.cls-86{fill:#27a8df;}.cls-87{fill:#27a7de;}.cls-88{fill:#27a6dd;}.cls-89{fill:#27a6dc;}.cls-90{fill:#27a5db;}.cls-91{fill:#27a5da;}.cls-92{fill:#27a4da;}.cls-93{fill:#27a4d9;}.cls-94{fill:#27a3d8;}.cls-95{fill:#27a2d7;}.cls-96{fill:#26a2d6;}.cls-97{fill:#26a1d6;}.cls-98{fill:#26a1d5;}.cls-99{fill:#26a0d4;}.cls-100{fill:#269fd3;}.cls-101{fill:#269fd2;}.cls-102{fill:#269ed2;}.cls-103{fill:#269ed1;}.cls-104{fill:#269dd0;}.cls-105{fill:#269ccf;}.cls-106{fill:#269cce;}.cls-107{fill:#269bce;}.cls-108{fill:#269bcd;}.cls-109{fill:#259acc;}.cls-110{fill:#2599cb;}.cls-111{fill:#2599ca;}.cls-112{fill:#2598ca;}.cls-113{fill:#2598c9;}.cls-114{fill:#2597c8;}.cls-115{fill:#2596c7;}.cls-116{fill:#2496c6;}.cls-117{fill:#2495c6;}.cls-118{fill:#2495c5;}.cls-119{fill:#2494c4;}.cls-120{fill:#2493c3;}.cls-121{fill:#2493c2;}.cls-122{fill:#2392c2;}.cls-123{fill:#2392c1;}.cls-124{fill:#2391c0;}.cls-125{fill:#2390bf;}.cls-126{fill:#2390be;}.cls-127{fill:#238fbe;}.cls-128{fill:#228fbd;}.cls-129{fill:#228ebc;}.cls-130{fill:#228ebb;}.cls-131{fill:#228dbb;}.cls-132{fill:#228dba;}.cls-133{fill:#228cb9;}.cls-134{fill:#218bb9;}.cls-135{fill:#218bb8;}.cls-136{fill:#218ab7;}.cls-137{fill:#2189b6;}.cls-138{fill:#2189b5;}.cls-139{fill:#2188b5;}.cls-140{fill:#2088b4;}.cls-141{fill:#2087b3;}.cls-142{fill:#2086b2;}.cls-143{fill:#2086b1;}.cls-144{fill:#1f85b0;}.cls-145{fill:#1f84af;}.cls-146{fill:#1f83ae;}.cls-147{fill:#1e83ae;}.cls-148{fill:#1e82ad;}.cls-149{fill:#1e82ac;}.cls-150{fill:#1e81ac;}.cls-151{fill:#1d81ab;}.cls-152{fill:#1d80aa;}.cls-153{fill:#1d80a9;}.cls-154{fill:#1d7fa9;}.cls-155{fill:#1d7fa8;}.cls-156{fill:#1c7ea7;}.cls-157{fill:#1c7da7;}.cls-158{fill:#1c7da6;}.cls-159{fill:#1c7ca5;}.cls-160{fill:#1b7ca5;}.cls-161{fill:#1b7ba4;}.cls-162{fill:#1b7ba3;}.cls-163{fill:#1b7aa2;}.cls-164{fill:#1a7aa2;}.cls-165{fill:#1a79a1;}.cls-166{fill:#1a79a0;}.cls-167{fill:#1a78a0;}.cls-168{fill:#19779f;}.cls-169{fill:#19779e;}.cls-170{fill:#19769e;}.cls-171{fill:#18769d;}.cls-172{fill:#18759c;}.cls-173{fill:#18749b;}.cls-174{fill:#17749a;}.cls-175{fill:#177399;}.cls-176{fill:#167298;}.cls-177{fill:#167197;}.cls-178{fill:#167096;}.cls-179{fill:#157095;}.cls-180{fill:#156f95;}.cls-181{fill:#156f94;}.cls-182{fill:#146e93;}.cls-183{fill:#146e92;}.cls-184{fill:#146d92;}.cls-185{fill:#136d91;}.cls-186{fill:#136c90;}.cls-187{fill:#136b90;}.cls-188{fill:#126b8f;}.cls-189{fill:#126a8e;}.cls-190{fill:#11698d;}.cls-191{fill:#11698c;}.cls-192{fill:#11688c;}.cls-193{fill:#10688b;}.cls-194{fill:#10678a;}.cls-195{fill:#0f6689;}.cls-196{fill:#0f6688;}.cls-197{fill:#0f6588;}.cls-198{fill:#0e6487;}.cls-199{fill:#0e6486;}.cls-200{fill:#0d6386;}.cls-201{fill:#0d6385;}.cls-202{fill:#0c6284;}.cls-203{fill:#0c6283;}.cls-204{fill:#0c6183;}.cls-205{fill:#0b6182;}.cls-206{fill:#0b6081;}.cls-207{fill:#0a5f80;}.cls-208{fill:#0a5f7f;}.cls-209{fill:#095e7f;}.cls-210{fill:#095d7e;}.cls-211{fill:#085d7d;}.cls-212{fill:#085c7d;}.cls-213{fill:#085c7c;}.cls-214{fill:#075b7b;}.cls-215{fill:#065a7a;}.cls-216{fill:#065a79;}.cls-217{fill:#065979;}.cls-218{fill:#055978;}.cls-219{fill:#055877;}.cls-220{fill:#045877;}.cls-221{fill:#045776;}.cls-222{fill:#035675;}.cls-223{fill:#035574;}.cls-224{fill:#025573;}.cls-225{fill:#025473;}.cls-226{fill:#015472;}.cls-227{fill:#015371;}.cls-228{fill:#005371;}.cls-229{fill:#005270;}.cls-230{fill:#00516f;}.cls-231{fill:#00506e;}.cls-232{fill:#00506d;}.cls-233{fill:#004f6c;}.cls-234{fill:#004e6b;}.cls-235{fill:#004e6a;}.cls-236{fill:#004d6a;}.cls-237{fill:#004c69;}.cls-238{fill:#004c68;}.cls-239{fill:#004b68;}.cls-240{fill:#004b67;}.cls-241{fill:#004a66;}.cls-242{fill:#004a65;}.cls-243{fill:#004965;}.cls-244{fill:#004864;}.cls-245{fill:#004863;}.cls-246{fill:#004762;}.cls-247{fill:#004661;}.cls-248{fill:#004560;}.cls-249{fill:#00455f;}.cls-250{fill:#00445f;}.cls-251{fill:#00435e;}</style><clipPath id="clip-path"><path class="cls-1" d="M136,286.47s-8.42-31.29,13-65.72,55.52-80.45,34.56-112.18-48.73-40.23-48.73-40.23S144,74,137.75,100.06,102.05,168.62,93,181.65,55.6,253.6,136,286.47Z"/></clipPath><clipPath id="clip-path-2"><path class="cls-1" d="M73.11,238.91s-8.42-31.29,13-65.72S141.67,92.74,120.7,61,72,20.78,72,20.78,81,26.45,74.81,52.51,39.12,121.06,30.05,134.1-7.34,206.05,73.11,238.91Z"/></clipPath></defs><title>sunny-notag</title><path class="cls-2" d="M327.8,73.71a98.39,98.39,0,0,1,30.26,21.11L329.91,123q-14.08-16.89-39.41-16.89t-32.37,12q-7,12,0,20.41t32.37,12.67a104.83,104.83,0,0,1,48.56,17.59q21.81,14.78,21.82,47.15,0,25.34-23.29,43.63t-54.26,18.3q-29.42,0-49.12-8.44a106.44,106.44,0,0,1-33.78-22.52l28.15-28.15q14.07,16.89,47.86,19.71,28.15,0,35.12-12t0-23.93q-7-12-35.12-14.78A113.51,113.51,0,0,1,230,172.23q-21.11-12.67-21.11-43.63,0-28,24-45t49.33-17Q311.61,66.67,327.8,73.71Z"/><path class="cls-2" d="M464.66,227.83V136.9h39.41V277.79H464.66V265a49.08,49.08,0,0,1-33.78,12.67q-26.75,0-40.82-16.18A55.16,55.16,0,0,1,376,224.17V136.9H415.4v77.41q0,14.08,7,21.82t21.25,8.16Q455.94,243.45,464.66,227.83Z"/><path class="cls-2" d="M562,188.28v89.52H522.57V141.13L562,136.9v12.81A49.07,49.07,0,0,1,595.76,137q26.74,0,40.82,16.19a55.17,55.17,0,0,1,14.08,37.3v87.27H611.24V200.38q0-14.07-7-21.82T583,170.4Q570.71,171.25,562,188.28Z"/><path class="cls-2" d="M707.57,188.28v89.52H668.16V141.13l39.41-4.22v12.81A49.07,49.07,0,0,1,741.35,137q26.74,0,40.82,16.19a55.17,55.17,0,0,1,14.08,37.3v87.27H756.84V200.38q0-14.07-7-21.82t-21.25-8.16Q716.3,171.25,707.57,188.28Z"/><path class="cls-2" d="M901,229.1V137h39.41V266.53q0,29.56-18.3,49.4t-43.63,21l-8.45.84q-29.56-.84-53.48-23.37l18.3-21.11q16.89,12.67,32,14.08,18.3,0,26.25-9.15t8-26V265a51.36,51.36,0,0,1-34.48,12.81q-26.75,0-40.82-16.18a55.17,55.17,0,0,1-14.08-37.3V137h39.41v77.41q0,14.08,7,21.82t21.25,8.16Q891.73,243.59,901,229.1Z"/><g class="cls-3"><polygon class="cls-4" points="204.6 106.5 106.47 77.06 109.09 68.33 204.6 68.33 204.6 106.5"/><polygon class="cls-4" points="204.6 108.69 105.87 79.07 106.47 77.06 204.6 106.5 204.6 108.69"/><polygon class="cls-5" points="204.6 110.88 105.27 81.08 105.87 79.07 204.6 108.69 204.6 110.88"/><polygon class="cls-5" points="204.6 113.06 104.67 83.08 105.27 81.08 204.6 110.88 204.6 113.06"/><polygon class="cls-6" points="204.6 115.25 104.06 85.09 104.67 83.08 204.6 113.06 204.6 115.25"/><polygon class="cls-7" points="204.6 117.44 103.46 87.09 104.06 85.09 204.6 115.25 204.6 117.44"/><polygon class="cls-8" points="204.6 119.62 102.86 89.1 103.46 87.09 204.6 117.44 204.6 119.62"/><polygon class="cls-8" points="204.6 121.81 102.26 91.11 102.86 89.1 204.6 119.62 204.6 121.81"/><polygon class="cls-9" points="204.6 124 101.66 93.11 102.26 91.11 204.6 121.81 204.6 124"/><polygon class="cls-10" points="204.6 126.18 101.05 95.12 101.66 93.11 204.6 124 204.6 126.18"/><polygon class="cls-11" points="204.6 128.37 100.45 97.13 101.05 95.12 204.6 126.18 204.6 128.37"/><polygon class="cls-11" points="204.6 130.56 99.85 99.13 100.45 97.13 204.6 128.37 204.6 130.56"/><polygon class="cls-12" points="204.6 132.74 99.25 101.14 99.85 99.13 204.6 130.56 204.6 132.74"/><polygon class="cls-13" points="204.6 134.93 98.65 103.14 99.25 101.14 204.6 132.74 204.6 134.93"/><polygon class="cls-14" points="204.6 137.12 98.04 105.15 98.65 103.14 204.6 134.93 204.6 137.12"/><polygon class="cls-15" points="204.6 139.3 97.44 107.16 98.04 105.15 204.6 137.12 204.6 139.3"/><polygon class="cls-16" points="204.6 141.49 96.84 109.16 97.44 107.16 204.6 139.3 204.6 141.49"/><polygon class="cls-17" points="204.6 143.68 96.24 111.17 96.84 109.16 204.6 141.49 204.6 143.68"/><polygon class="cls-17" points="204.6 145.86 95.64 113.17 96.24 111.17 204.6 143.68 204.6 145.86"/><polygon class="cls-18" points="204.6 147.25 204.38 147.99 95.03 115.18 95.64 113.17 204.6 145.86 204.6 147.25"/><rect class="cls-19" x="148.36" y="75.5" width="2.09" height="114.16" transform="translate(-20.52 237.59) rotate(-73.3)"/><rect class="cls-20" x="147.76" y="77.51" width="2.09" height="114.16" transform="translate(-22.86 238.45) rotate(-73.3)"/><rect class="cls-20" x="147.16" y="79.52" width="2.09" height="114.16" transform="translate(-25.22 239.29) rotate(-73.3)"/><rect class="cls-21" x="146.56" y="81.52" width="2.09" height="114.16" transform="matrix(0.29, -0.96, 0.96, 0.29, -27.57, 240.16)"/><rect class="cls-22" x="145.95" y="83.53" width="2.09" height="114.16" transform="matrix(0.29, -0.96, 0.96, 0.29, -29.92, 241)"/><rect class="cls-22" x="145.35" y="85.53" width="2.09" height="114.16" transform="translate(-32.27 241.86) rotate(-73.3)"/><rect class="cls-23" x="144.75" y="87.54" width="2.09" height="114.16" transform="translate(-34.62 242.72) rotate(-73.3)"/><rect class="cls-24" x="144.15" y="89.55" width="2.09" height="114.16" transform="translate(-36.97 243.56) rotate(-73.3)"/><rect class="cls-25" x="143.55" y="91.55" width="2.09" height="114.16" transform="matrix(0.29, -0.96, 0.96, 0.29, -39.32, 244.43)"/><rect class="cls-25" x="142.94" y="93.56" width="2.09" height="114.16" transform="matrix(0.29, -0.96, 0.96, 0.29, -41.67, 245.27)"/><rect class="cls-26" x="142.34" y="95.57" width="2.09" height="114.16" transform="translate(-44.02 246.13) rotate(-73.3)"/><rect class="cls-27" x="141.74" y="97.57" width="2.09" height="114.16" transform="translate(-46.37 246.98) rotate(-73.3)"/><rect class="cls-28" x="141.14" y="99.58" width="2.09" height="114.16" transform="translate(-48.72 247.84) rotate(-73.3)"/><rect class="cls-29" x="140.54" y="101.58" width="2.09" height="114.16" transform="translate(-51.08 248.68) rotate(-73.3)"/><rect class="cls-30" x="139.94" y="103.59" width="2.09" height="114.16" transform="translate(-53.42 249.54) rotate(-73.3)"/><rect class="cls-31" x="139.33" y="105.6" width="2.09" height="114.16" transform="translate(-55.77 250.4) rotate(-73.3)"/><rect class="cls-31" x="138.73" y="107.6" width="2.09" height="114.16" transform="matrix(0.29, -0.96, 0.96, 0.29, -58.13, 251.24)"/><rect class="cls-32" x="138.13" y="109.61" width="2.09" height="114.16" transform="translate(-60.47 252.1) rotate(-73.3)"/><rect class="cls-33" x="137.53" y="111.61" width="2.09" height="114.16" transform="translate(-62.83 252.95) rotate(-73.3)"/><rect class="cls-34" x="136.93" y="113.62" width="2.09" height="114.16" transform="translate(-65.17 253.81) rotate(-73.3)"/><rect class="cls-34" x="136.32" y="115.63" width="2.09" height="114.16" transform="translate(-67.53 254.66) rotate(-73.3)"/><rect class="cls-35" x="135.72" y="117.63" width="2.09" height="114.16" transform="translate(-69.88 255.52) rotate(-73.3)"/><rect class="cls-36" x="135.12" y="119.64" width="2.09" height="114.16" transform="matrix(0.29, -0.96, 0.96, 0.29, -72.23, 256.36)"/><rect class="cls-36" x="134.52" y="121.65" width="2.09" height="114.16" transform="matrix(0.29, -0.96, 0.96, 0.29, -74.58, 257.22)"/><rect class="cls-37" x="133.92" y="123.65" width="2.09" height="114.16" transform="translate(-76.93 258.08) rotate(-73.3)"/><rect class="cls-38" x="133.32" y="125.66" width="2.09" height="114.16" transform="translate(-79.28 258.92) rotate(-73.3)"/><rect class="cls-38" x="132.71" y="127.66" width="2.09" height="114.16" transform="translate(-81.63 259.78) rotate(-73.3)"/><rect class="cls-39" x="132.11" y="129.67" width="2.09" height="114.16" transform="translate(-83.98 260.63) rotate(-73.3)"/><rect class="cls-40" x="131.51" y="131.68" width="2.09" height="114.16" transform="translate(-86.33 261.49) rotate(-73.3)"/><rect class="cls-40" x="130.91" y="133.68" width="2.09" height="114.16" transform="matrix(0.29, -0.96, 0.96, 0.29, -88.68, 262.33)"/><rect class="cls-41" x="130.31" y="135.69" width="2.09" height="114.16" transform="matrix(0.29, -0.96, 0.96, 0.29, -91.03, 263.2)"/><rect class="cls-42" x="129.7" y="137.69" width="2.09" height="114.16" transform="matrix(0.29, -0.96, 0.96, 0.29, -93.38, 264.04)"/><rect class="cls-43" x="129.1" y="139.7" width="2.09" height="114.16" transform="matrix(0.29, -0.96, 0.96, 0.29, -95.73, 264.9)"/><rect class="cls-44" x="128.5" y="141.71" width="2.09" height="114.16" transform="translate(-98.08 265.76) rotate(-73.3)"/><rect class="cls-45" x="127.9" y="143.71" width="2.09" height="114.16" transform="translate(-100.44 266.6) rotate(-73.3)"/><rect class="cls-46" x="127.3" y="145.72" width="2.09" height="114.16" transform="matrix(0.29, -0.96, 0.96, 0.29, -102.78, 267.46)"/><rect class="cls-46" x="126.69" y="147.72" width="2.09" height="114.16" transform="matrix(0.29, -0.96, 0.96, 0.29, -105.14, 268.3)"/><rect class="cls-47" x="126.09" y="149.73" width="2.09" height="114.16" transform="matrix(0.29, -0.96, 0.96, 0.29, -107.48, 269.17)"/><rect class="cls-48" x="125.49" y="151.74" width="2.09" height="114.16" transform="matrix(0.29, -0.96, 0.96, 0.29, -109.84, 270.01)"/><rect class="cls-48" x="124.89" y="153.74" width="2.09" height="114.16" transform="matrix(0.29, -0.96, 0.96, 0.29, -112.18, 270.88)"/><rect class="cls-49" x="124.29" y="155.75" width="2.09" height="114.16" transform="translate(-114.54 271.72) rotate(-73.3)"/><rect class="cls-50" x="123.69" y="157.76" width="2.09" height="114.16" transform="translate(-116.89 272.58) rotate(-73.3)"/><rect class="cls-51" x="123.08" y="159.76" width="2.09" height="114.16" transform="matrix(0.29, -0.96, 0.96, 0.29, -119.23, 273.44)"/><rect class="cls-51" x="122.48" y="161.77" width="2.09" height="114.16" transform="matrix(0.29, -0.96, 0.96, 0.29, -121.59, 274.28)"/><rect class="cls-52" x="121.88" y="163.77" width="2.09" height="114.16" transform="matrix(0.29, -0.96, 0.96, 0.29, -123.94, 275.14)"/><rect class="cls-53" x="121.28" y="165.78" width="2.09" height="114.16" transform="matrix(0.29, -0.96, 0.96, 0.29, -126.29, 275.98)"/><rect class="cls-53" x="120.68" y="167.79" width="2.09" height="114.16" transform="translate(-128.64 276.85) rotate(-73.3)"/><rect class="cls-54" x="120.07" y="169.79" width="2.09" height="114.16" transform="translate(-130.99 277.69) rotate(-73.3)"/><rect class="cls-55" x="119.47" y="171.8" width="2.09" height="114.16" transform="translate(-133.34 278.55) rotate(-73.3)"/><rect class="cls-56" x="118.87" y="173.8" width="2.09" height="114.16" transform="translate(-135.69 279.4) rotate(-73.3)"/><rect class="cls-56" x="118.27" y="175.81" width="2.09" height="114.16" transform="translate(-138.04 280.26) rotate(-73.3)"/><rect class="cls-57" x="117.67" y="177.82" width="2.09" height="114.16" transform="translate(-140.39 281.1) rotate(-73.3)"/><rect class="cls-58" x="117.07" y="179.82" width="2.09" height="114.16" transform="translate(-142.74 281.97) rotate(-73.3)"/><rect class="cls-58" x="116.46" y="181.83" width="2.09" height="114.16" transform="translate(-145.09 282.82) rotate(-73.3)"/><rect class="cls-59" x="115.86" y="183.84" width="2.09" height="114.16" transform="translate(-147.44 283.66) rotate(-73.3)"/><rect class="cls-60" x="115.26" y="185.84" width="2.09" height="114.16" transform="translate(-149.79 284.53) rotate(-73.3)"/><rect class="cls-61" x="114.66" y="187.85" width="2.09" height="114.16" transform="translate(-152.14 285.37) rotate(-73.3)"/><rect class="cls-61" x="114.06" y="189.85" width="2.09" height="114.16" transform="translate(-154.49 286.23) rotate(-73.3)"/><rect class="cls-62" x="113.45" y="191.86" width="2.09" height="114.16" transform="matrix(0.29, -0.96, 0.96, 0.29, -156.84, 287.07)"/><rect class="cls-63" x="112.85" y="193.87" width="2.09" height="114.16" transform="translate(-159.19 287.94) rotate(-73.3)"/><rect class="cls-63" x="112.25" y="195.87" width="2.09" height="114.16" transform="translate(-161.55 288.78) rotate(-73.3)"/><rect class="cls-64" x="111.65" y="197.88" width="2.09" height="114.16" transform="matrix(0.29, -0.96, 0.96, 0.29, -163.89, 289.65)"/><rect class="cls-65" x="111.05" y="199.88" width="2.09" height="114.16" transform="translate(-166.24 290.5) rotate(-73.3)"/><rect class="cls-66" x="110.45" y="201.89" width="2.09" height="114.16" transform="translate(-168.6 291.34) rotate(-73.3)"/><rect class="cls-66" x="109.84" y="203.9" width="2.09" height="114.16" transform="translate(-170.95 292.2) rotate(-73.3)"/><polygon class="cls-67" points="165.26 278.38 164.66 280.39 55.6 247.67 55.6 246.65 55.91 245.58 165.26 278.38"/><polygon class="cls-68" points="164.66 280.39 164.06 282.4 55.6 249.86 55.6 247.67 164.66 280.39"/><polygon class="cls-69" points="164.06 282.4 163.46 284.4 55.6 252.04 55.6 249.86 164.06 282.4"/><polygon class="cls-69" points="163.46 284.4 162.86 286.41 55.6 254.23 55.6 252.04 163.46 284.4"/><polygon class="cls-70" points="162.86 286.41 162.84 286.47 155.76 286.47 55.6 256.42 55.6 254.23 162.86 286.41"/><polygon class="cls-71" points="148.47 286.47 55.6 258.6 55.6 256.42 155.76 286.47 148.47 286.47"/><polygon class="cls-72" points="141.18 286.47 55.6 260.79 55.6 258.6 148.47 286.47 141.18 286.47"/><polygon class="cls-73" points="133.89 286.47 55.6 262.98 55.6 260.79 141.18 286.47 133.89 286.47"/><polygon class="cls-73" points="126.6 286.47 55.6 265.16 55.6 262.98 133.89 286.47 126.6 286.47"/><polygon class="cls-74" points="119.31 286.47 55.6 267.35 55.6 265.16 126.6 286.47 119.31 286.47"/><polygon class="cls-75" points="112.03 286.47 55.6 269.54 55.6 267.35 119.31 286.47 112.03 286.47"/><polygon class="cls-76" points="104.74 286.47 55.6 271.72 55.6 269.54 112.03 286.47 104.74 286.47"/><polygon class="cls-77" points="97.45 286.47 55.6 273.91 55.6 271.72 104.74 286.47 97.45 286.47"/><polygon class="cls-77" points="90.16 286.47 55.6 276.1 55.6 273.91 97.45 286.47 90.16 286.47"/><polygon class="cls-78" points="82.87 286.47 55.6 278.28 55.6 276.1 90.16 286.47 82.87 286.47"/><polygon class="cls-79" points="75.58 286.47 55.6 280.47 55.6 278.28 82.87 286.47 75.58 286.47"/><polygon class="cls-80" points="68.29 286.47 55.6 282.66 55.6 280.47 75.58 286.47 68.29 286.47"/><polygon class="cls-81" points="61 286.47 55.6 284.84 55.6 282.66 68.29 286.47 61 286.47"/><polygon class="cls-82" points="55.6 284.84 61 286.47 55.6 286.47 55.6 284.84"/></g><g class="cls-83"><polygon class="cls-84" points="141.67 35.91 102.33 20.78 141.67 20.78 141.67 35.91"/><polygon class="cls-84" points="141.67 37.02 99.44 20.78 102.33 20.78 141.67 35.91 141.67 37.02"/><polygon class="cls-85" points="141.67 38.13 96.55 20.78 99.44 20.78 141.67 37.02 141.67 38.13"/><polygon class="cls-86" points="141.67 39.24 93.66 20.78 96.55 20.78 141.67 38.13 141.67 39.24"/><polygon class="cls-87" points="141.67 40.36 90.77 20.78 93.66 20.78 141.67 39.24 141.67 40.36"/><polygon class="cls-88" points="141.67 41.47 87.88 20.78 90.77 20.78 141.67 40.36 141.67 41.47"/><polygon class="cls-89" points="141.67 42.58 84.99 20.78 87.88 20.78 141.67 41.47 141.67 42.58"/><polygon class="cls-90" points="141.67 43.69 82.09 20.78 84.99 20.78 141.67 42.58 141.67 43.69"/><polygon class="cls-91" points="141.67 44.8 79.2 20.78 82.09 20.78 141.67 43.69 141.67 44.8"/><polygon class="cls-92" points="141.67 45.92 76.31 20.78 79.2 20.78 141.67 44.8 141.67 45.92"/><polygon class="cls-93" points="141.67 47.03 73.42 20.78 76.31 20.78 141.67 45.92 141.67 47.03"/><polygon class="cls-94" points="141.67 48.14 70.53 20.78 73.42 20.78 141.67 47.03 141.67 48.14"/><polygon class="cls-94" points="141.67 49.25 67.64 20.78 70.53 20.78 141.67 48.14 141.67 49.25"/><polygon class="cls-95" points="141.67 50.37 64.75 20.78 67.64 20.78 141.67 49.25 141.67 50.37"/><polygon class="cls-96" points="141.67 51.48 61.86 20.78 64.75 20.78 141.67 50.37 141.67 51.48"/><polygon class="cls-97" points="141.67 52.59 61.41 21.72 61.77 20.78 61.86 20.78 141.67 51.48 141.67 52.59"/><polygon class="cls-98" points="141.67 53.7 61.04 22.69 61.41 21.72 141.67 52.59 141.67 53.7"/><polygon class="cls-99" points="141.67 54.81 60.67 23.66 61.04 22.69 141.67 53.7 141.67 54.81"/><polygon class="cls-99" points="141.67 55.92 60.29 24.63 60.67 23.66 141.67 54.81 141.67 55.92"/><polygon class="cls-100" points="141.67 57.04 59.92 25.6 60.29 24.63 141.67 55.92 141.67 57.04"/><polygon class="cls-101" points="141.67 58.15 59.55 26.57 59.92 25.6 141.67 57.04 141.67 58.15"/><polygon class="cls-102" points="141.67 59.26 59.18 27.53 59.55 26.57 141.67 58.15 141.67 59.26"/><polygon class="cls-103" points="141.67 60.37 58.8 28.5 59.18 27.53 141.67 59.26 141.67 60.37"/><polygon class="cls-104" points="141.67 61.48 58.43 29.47 58.8 28.5 141.67 60.37 141.67 61.48"/><polygon class="cls-104" points="141.67 62.6 58.06 30.44 58.43 29.47 141.67 61.48 141.67 62.6"/><polygon class="cls-105" points="141.67 63.71 57.69 31.41 58.06 30.44 141.67 62.6 141.67 63.71"/><polygon class="cls-106" points="141.67 64.82 57.31 32.38 57.69 31.41 141.67 63.71 141.67 64.82"/><polygon class="cls-107" points="141.67 65.93 56.94 33.35 57.31 32.38 141.67 64.82 141.67 65.93"/><polygon class="cls-108" points="141.67 67.05 56.57 34.31 56.94 33.35 141.67 65.93 141.67 67.05"/><polygon class="cls-109" points="141.67 68.16 56.2 35.28 56.57 34.31 141.67 67.05 141.67 68.16"/><polygon class="cls-109" points="141.67 69.27 55.82 36.25 56.2 35.28 141.67 68.16 141.67 69.27"/><polygon class="cls-110" points="141.67 70.38 55.45 37.22 55.82 36.25 141.67 69.27 141.67 70.38"/><polygon class="cls-111" points="141.67 71.49 55.08 38.19 55.45 37.22 141.67 70.38 141.67 71.49"/><polygon class="cls-112" points="141.67 72.6 54.71 39.16 55.08 38.19 141.67 71.49 141.67 72.6"/><polygon class="cls-113" points="141.67 73.72 54.33 40.13 54.71 39.16 141.67 72.6 141.67 73.72"/><polygon class="cls-114" points="141.67 74.83 53.96 41.09 54.33 40.13 141.67 73.72 141.67 74.83"/><polygon class="cls-114" points="141.67 75.94 53.59 42.06 53.96 41.09 141.67 74.83 141.67 75.94"/><polygon class="cls-115" points="141.67 77.05 53.22 43.03 53.59 42.06 141.67 75.94 141.67 77.05"/><polygon class="cls-116" points="141.67 78.16 52.84 44 53.22 43.03 141.67 77.05 141.67 78.16"/><polygon class="cls-117" points="141.67 79.28 52.47 44.97 52.84 44 141.67 78.16 141.67 79.28"/><polygon class="cls-118" points="141.67 80.39 52.1 45.94 52.47 44.97 141.67 79.28 141.67 80.39"/><polygon class="cls-119" points="141.67 81.5 51.73 46.91 52.1 45.94 141.67 80.39 141.67 81.5"/><polygon class="cls-119" points="141.67 82.61 51.35 47.88 51.73 46.91 141.67 81.5 141.67 82.61"/><polygon class="cls-120" points="141.67 83.72 50.98 48.84 51.35 47.88 141.67 82.61 141.67 83.72"/><polygon class="cls-121" points="141.67 84.84 50.61 49.81 50.98 48.84 141.67 83.72 141.67 84.84"/><polygon class="cls-122" points="141.67 85.95 50.23 50.78 50.61 49.81 141.67 84.84 141.67 85.95"/><polygon class="cls-123" points="141.67 87.06 49.86 51.75 50.23 50.78 141.67 85.95 141.67 87.06"/><polygon class="cls-124" points="141.67 88.17 49.49 52.72 49.86 51.75 141.67 87.06 141.67 88.17"/><polygon class="cls-124" points="141.67 89.28 49.12 53.69 49.49 52.72 141.67 88.17 141.67 89.28"/><polygon class="cls-125" points="141.67 90.4 48.74 54.66 49.12 53.69 141.67 89.28 141.67 90.4"/><polygon class="cls-126" points="141.67 91.51 48.37 55.63 48.74 54.66 141.67 90.4 141.67 91.51"/><polygon class="cls-127" points="141.67 92.62 48 56.59 48.37 55.63 141.67 91.51 141.67 92.62"/><polygon class="cls-128" points="141.67 93.73 47.63 57.56 48 56.59 141.67 92.62 141.67 93.73"/><polygon class="cls-129" points="141.67 94.84 47.25 58.53 47.63 57.56 141.67 93.73 141.67 94.84"/><polygon class="cls-130" points="141.67 95.96 46.88 59.5 47.25 58.53 141.67 94.84 141.67 95.96"/><polygon class="cls-131" points="141.67 97.07 46.51 60.47 46.88 59.5 141.67 95.96 141.67 97.07"/><polygon class="cls-132" points="141.67 98.18 46.14 61.44 46.51 60.47 141.67 97.07 141.67 98.18"/><polygon class="cls-133" points="141.67 98.31 141.34 99.17 45.76 62.41 46.14 61.44 141.67 98.18 141.67 98.31"/><rect class="cls-134" x="92.85" y="30.07" width="1.04" height="102.4" transform="translate(-16 139.24) rotate(-68.97)"/><rect class="cls-135" x="92.47" y="31.04" width="1.04" height="102.4" transform="translate(-17.15 139.51) rotate(-68.96)"/><rect class="cls-136" x="92.1" y="32.01" width="1.04" height="102.4" transform="translate(-18.29 139.78) rotate(-68.96)"/><rect class="cls-136" x="91.73" y="32.98" width="1.04" height="102.4" transform="translate(-19.43 140.06) rotate(-68.96)"/><rect class="cls-137" x="91.36" y="33.95" width="1.04" height="102.4" transform="translate(-20.58 140.33) rotate(-68.96)"/><rect class="cls-138" x="90.98" y="34.91" width="1.04" height="102.4" transform="translate(-21.72 140.6) rotate(-68.96)"/><rect class="cls-139" x="90.61" y="35.88" width="1.04" height="102.4" transform="translate(-22.86 140.88) rotate(-68.97)"/><rect class="cls-140" x="90.24" y="36.85" width="1.04" height="102.4" transform="translate(-24.01 141.14) rotate(-68.96)"/><rect class="cls-141" x="89.86" y="37.82" width="1.04" height="102.4" transform="translate(-25.15 141.42) rotate(-68.96)"/><rect class="cls-141" x="89.49" y="38.79" width="1.04" height="102.4" transform="translate(-26.29 141.7) rotate(-68.97)"/><rect class="cls-142" x="89.12" y="39.76" width="1.04" height="102.4" transform="translate(-27.43 141.97) rotate(-68.96)"/><rect class="cls-143" x="88.75" y="40.73" width="1.04" height="102.4" transform="translate(-28.58 142.24) rotate(-68.96)"/><rect class="cls-144" x="88.37" y="41.69" width="1.04" height="102.4" transform="translate(-29.72 142.52) rotate(-68.97)"/><rect class="cls-144" x="88" y="42.66" width="1.04" height="102.4" transform="translate(-30.86 142.79) rotate(-68.96)"/><rect class="cls-145" x="87.63" y="43.63" width="1.04" height="102.4" transform="translate(-32.01 143.06) rotate(-68.96)"/><rect class="cls-146" x="87.26" y="44.6" width="1.04" height="102.4" transform="translate(-33.15 143.34) rotate(-68.96)"/><rect class="cls-147" x="86.88" y="45.57" width="1.04" height="102.4" transform="translate(-34.29 143.61) rotate(-68.96)"/><rect class="cls-148" x="86.51" y="46.54" width="1.04" height="102.4" transform="translate(-35.44 143.88) rotate(-68.96)"/><rect class="cls-149" x="86.14" y="47.51" width="1.04" height="102.4" transform="translate(-36.57 144.16) rotate(-68.97)"/><rect class="cls-150" x="85.77" y="48.48" width="1.04" height="102.4" transform="translate(-37.72 144.43) rotate(-68.96)"/><rect class="cls-151" x="85.39" y="49.44" width="1.04" height="102.4" transform="translate(-38.86 144.71) rotate(-68.96)"/><rect class="cls-152" x="85.02" y="50.41" width="1.04" height="102.4" transform="translate(-40.01 144.97) rotate(-68.96)"/><rect class="cls-153" x="84.65" y="51.38" width="1.04" height="102.4" transform="translate(-41.15 145.24) rotate(-68.96)"/><rect class="cls-154" x="84.28" y="52.35" width="1.04" height="102.4" transform="translate(-42.29 145.53) rotate(-68.97)"/><rect class="cls-155" x="83.9" y="53.32" width="1.04" height="102.4" transform="translate(-43.44 145.79) rotate(-68.96)"/><rect class="cls-156" x="83.53" y="54.29" width="1.04" height="102.4" transform="translate(-44.58 146.06) rotate(-68.96)"/><rect class="cls-157" x="83.16" y="55.26" width="1.04" height="102.4" transform="translate(-45.72 146.35) rotate(-68.97)"/><rect class="cls-158" x="82.79" y="56.22" width="1.04" height="102.4" transform="translate(-46.86 146.61) rotate(-68.96)"/><rect class="cls-159" x="82.41" y="57.19" width="1.04" height="102.4" transform="translate(-48.01 146.88) rotate(-68.96)"/><rect class="cls-160" x="82.04" y="58.16" width="1.04" height="102.4" transform="translate(-49.15 147.17) rotate(-68.97)"/><rect class="cls-161" x="81.67" y="59.13" width="1.04" height="102.4" transform="translate(-50.29 147.43) rotate(-68.96)"/><rect class="cls-162" x="81.3" y="60.1" width="1.04" height="102.4" transform="translate(-51.44 147.7) rotate(-68.96)"/><rect class="cls-163" x="80.92" y="61.07" width="1.04" height="102.4" transform="translate(-52.58 147.99) rotate(-68.97)"/><rect class="cls-164" x="80.55" y="62.04" width="1.04" height="102.4" transform="translate(-53.72 148.25) rotate(-68.96)"/><rect class="cls-165" x="80.18" y="63.01" width="1.04" height="102.4" transform="translate(-54.86 148.52) rotate(-68.96)"/><rect class="cls-166" x="79.81" y="63.97" width="1.04" height="102.4" transform="translate(-56 148.81) rotate(-68.97)"/><rect class="cls-167" x="79.43" y="64.94" width="1.04" height="102.4" transform="translate(-57.15 149.07) rotate(-68.96)"/><rect class="cls-168" x="79.06" y="65.91" width="1.04" height="102.4" transform="matrix(0.36, -0.93, 0.93, 0.36, -58.29, 149.34)"/><rect class="cls-169" x="78.69" y="66.88" width="1.04" height="102.4" transform="translate(-59.43 149.63) rotate(-68.97)"/><rect class="cls-170" x="78.32" y="67.85" width="1.04" height="102.4" transform="translate(-60.58 149.89) rotate(-68.96)"/><rect class="cls-171" x="77.94" y="68.82" width="1.04" height="102.4" transform="translate(-61.72 150.16) rotate(-68.96)"/><rect class="cls-172" x="77.57" y="69.79" width="1.04" height="102.4" transform="translate(-62.86 150.44) rotate(-68.96)"/><rect class="cls-172" x="77.2" y="70.76" width="1.04" height="102.4" transform="translate(-64.01 150.71) rotate(-68.96)"/><rect class="cls-173" x="76.82" y="71.72" width="1.04" height="102.4" transform="translate(-65.15 150.98) rotate(-68.96)"/><rect class="cls-174" x="76.45" y="72.69" width="1.04" height="102.4" transform="translate(-66.29 151.27) rotate(-68.97)"/><rect class="cls-175" x="76.08" y="73.66" width="1.04" height="102.4" transform="translate(-67.44 151.53) rotate(-68.96)"/><rect class="cls-175" x="75.71" y="74.63" width="1.04" height="102.4" transform="translate(-68.58 151.8) rotate(-68.96)"/><rect class="cls-176" x="75.33" y="75.6" width="1.04" height="102.4" transform="translate(-69.72 152.09) rotate(-68.97)"/><rect class="cls-177" x="74.96" y="76.57" width="1.04" height="102.4" transform="translate(-70.87 152.35) rotate(-68.96)"/><rect class="cls-177" x="74.59" y="77.54" width="1.04" height="102.4" transform="translate(-72.01 152.62) rotate(-68.96)"/><rect class="cls-178" x="74.22" y="78.5" width="1.04" height="102.4" transform="translate(-73.15 152.9) rotate(-68.96)"/><rect class="cls-179" x="73.84" y="79.47" width="1.04" height="102.4" transform="translate(-74.29 153.17) rotate(-68.96)"/><rect class="cls-180" x="73.47" y="80.44" width="1.04" height="102.4" transform="translate(-75.44 153.44) rotate(-68.96)"/><rect class="cls-181" x="73.1" y="81.41" width="1.04" height="102.4" transform="translate(-76.58 153.73) rotate(-68.97)"/><rect class="cls-182" x="72.73" y="82.38" width="1.04" height="102.4" transform="translate(-77.72 153.98) rotate(-68.96)"/><rect class="cls-183" x="72.35" y="83.35" width="1.04" height="102.4" transform="translate(-78.87 154.26) rotate(-68.96)"/><rect class="cls-184" x="71.98" y="84.32" width="1.04" height="102.4" transform="translate(-80.01 154.55) rotate(-68.97)"/><rect class="cls-185" x="71.61" y="85.29" width="1.04" height="102.4" transform="translate(-81.15 154.81) rotate(-68.96)"/><rect class="cls-186" x="71.24" y="86.25" width="1.04" height="102.4" transform="translate(-82.3 155.08) rotate(-68.96)"/><rect class="cls-187" x="70.86" y="87.22" width="1.04" height="102.4" transform="translate(-83.44 155.36) rotate(-68.96)"/><rect class="cls-188" x="70.49" y="88.19" width="1.04" height="102.4" transform="translate(-84.58 155.63) rotate(-68.96)"/><rect class="cls-189" x="70.12" y="89.16" width="1.04" height="102.4" transform="translate(-85.72 155.91) rotate(-68.97)"/><rect class="cls-189" x="69.75" y="90.13" width="1.04" height="102.4" transform="translate(-86.87 156.17) rotate(-68.96)"/><rect class="cls-190" x="69.37" y="91.1" width="1.04" height="102.4" transform="translate(-88.01 156.44) rotate(-68.96)"/><rect class="cls-191" x="69" y="92.07" width="1.04" height="102.4" transform="translate(-89.15 156.73) rotate(-68.97)"/><rect class="cls-192" x="68.63" y="93.03" width="1.04" height="102.4" transform="translate(-90.3 156.99) rotate(-68.96)"/><rect class="cls-193" x="68.26" y="94" width="1.04" height="102.4" transform="translate(-91.44 157.27) rotate(-68.96)"/><rect class="cls-194" x="67.88" y="94.97" width="1.04" height="102.4" transform="translate(-92.58 157.55) rotate(-68.96)"/><rect class="cls-194" x="67.51" y="95.94" width="1.04" height="102.4" transform="translate(-93.72 157.81) rotate(-68.96)"/><rect class="cls-195" x="67.14" y="96.91" width="1.04" height="102.4" transform="translate(-94.87 158.08) rotate(-68.96)"/><rect class="cls-196" x="66.77" y="97.88" width="1.04" height="102.4" transform="translate(-96.01 158.37) rotate(-68.97)"/><rect class="cls-197" x="66.39" y="98.85" width="1.04" height="102.4" transform="translate(-97.15 158.63) rotate(-68.96)"/><rect class="cls-198" x="66.02" y="99.82" width="1.04" height="102.4" transform="translate(-98.3 158.9) rotate(-68.96)"/><rect class="cls-199" x="65.65" y="100.78" width="1.04" height="102.4" transform="translate(-99.44 159.19) rotate(-68.97)"/><rect class="cls-200" x="65.28" y="101.75" width="1.04" height="102.4" transform="translate(-100.58 159.45) rotate(-68.96)"/><rect class="cls-201" x="64.9" y="102.72" width="1.04" height="102.4" transform="translate(-101.72 159.72) rotate(-68.96)"/><rect class="cls-202" x="64.53" y="103.69" width="1.04" height="102.4" transform="translate(-102.87 160.01) rotate(-68.96)"/><rect class="cls-203" x="64.16" y="104.66" width="1.04" height="102.4" transform="translate(-104.01 160.27) rotate(-68.96)"/><rect class="cls-204" x="63.79" y="105.63" width="1.04" height="102.4" transform="translate(-105.15 160.54) rotate(-68.96)"/><rect class="cls-205" x="63.41" y="106.6" width="1.04" height="102.4" transform="translate(-106.3 160.83) rotate(-68.97)"/><rect class="cls-206" x="63.04" y="107.56" width="1.04" height="102.4" transform="translate(-107.44 161.09) rotate(-68.96)"/><rect class="cls-206" x="62.67" y="108.53" width="1.04" height="102.4" transform="translate(-108.58 161.36) rotate(-68.96)"/><rect class="cls-207" x="62.29" y="109.5" width="1.04" height="102.4" transform="translate(-109.72 161.65) rotate(-68.97)"/><rect class="cls-208" x="61.92" y="110.47" width="1.04" height="102.4" transform="translate(-110.87 161.91) rotate(-68.96)"/><rect class="cls-209" x="61.55" y="111.44" width="1.04" height="102.4" transform="translate(-112.01 162.18) rotate(-68.96)"/><rect class="cls-210" x="61.18" y="112.41" width="1.04" height="102.4" transform="translate(-113.15 162.47) rotate(-68.96)"/><rect class="cls-211" x="60.8" y="113.38" width="1.04" height="102.4" transform="translate(-114.3 162.73) rotate(-68.96)"/><rect class="cls-212" x="60.43" y="114.35" width="1.04" height="102.4" transform="translate(-115.44 163) rotate(-68.96)"/><rect class="cls-213" x="60.06" y="115.31" width="1.04" height="102.4" transform="translate(-116.58 163.29) rotate(-68.97)"/><rect class="cls-214" x="59.69" y="116.28" width="1.04" height="102.4" transform="translate(-117.73 163.54) rotate(-68.96)"/><rect class="cls-214" x="59.31" y="117.25" width="1.04" height="102.4" transform="translate(-118.87 163.82) rotate(-68.96)"/><rect class="cls-215" x="58.94" y="118.22" width="1.04" height="102.4" transform="translate(-120.01 164.11) rotate(-68.97)"/><rect class="cls-216" x="58.57" y="119.19" width="1.04" height="102.4" transform="translate(-121.15 164.37) rotate(-68.96)"/><rect class="cls-217" x="58.2" y="120.16" width="1.04" height="102.4" transform="translate(-122.3 164.64) rotate(-68.96)"/><rect class="cls-218" x="57.82" y="121.13" width="1.04" height="102.4" transform="translate(-123.44 164.93) rotate(-68.97)"/><rect class="cls-219" x="57.45" y="122.1" width="1.04" height="102.4" transform="translate(-124.58 165.19) rotate(-68.96)"/><rect class="cls-220" x="57.08" y="123.06" width="1.04" height="102.4" transform="translate(-125.73 165.46) rotate(-68.96)"/><rect class="cls-221" x="56.71" y="124.03" width="1.04" height="102.4" transform="translate(-126.87 165.75) rotate(-68.97)"/><rect class="cls-222" x="56.33" y="125" width="1.04" height="102.4" transform="translate(-128.01 166) rotate(-68.96)"/><rect class="cls-222" x="55.96" y="125.97" width="1.04" height="102.4" transform="translate(-129.15 166.28) rotate(-68.96)"/><rect class="cls-223" x="55.59" y="126.94" width="1.04" height="102.4" transform="translate(-130.3 166.57) rotate(-68.97)"/><rect class="cls-224" x="55.22" y="127.91" width="1.04" height="102.4" transform="translate(-131.44 166.83) rotate(-68.96)"/><rect class="cls-225" x="54.84" y="128.88" width="1.04" height="102.4" transform="translate(-132.58 167.09) rotate(-68.96)"/><rect class="cls-226" x="54.47" y="129.84" width="1.04" height="102.4" transform="translate(-133.73 167.39) rotate(-68.97)"/><rect class="cls-227" x="54.1" y="130.81" width="1.04" height="102.4" transform="translate(-134.87 167.64) rotate(-68.96)"/><rect class="cls-228" x="53.73" y="131.78" width="1.04" height="102.4" transform="translate(-136.01 167.94) rotate(-68.97)"/><rect class="cls-229" x="53.35" y="132.75" width="1.04" height="102.4" transform="translate(-137.15 168.19) rotate(-68.96)"/><rect class="cls-230" x="52.98" y="133.72" width="1.04" height="102.4" transform="translate(-138.3 168.47) rotate(-68.96)"/><rect class="cls-230" x="52.61" y="134.69" width="1.04" height="102.4" transform="translate(-139.44 168.76) rotate(-68.97)"/><rect class="cls-231" x="52.24" y="135.66" width="1.04" height="102.4" transform="translate(-140.58 169.01) rotate(-68.96)"/><rect class="cls-232" x="51.86" y="136.63" width="1.04" height="102.4" transform="translate(-141.73 169.29) rotate(-68.96)"/><rect class="cls-233" x="51.49" y="137.59" width="1.04" height="102.4" transform="translate(-142.87 169.57) rotate(-68.96)"/><rect class="cls-233" x="51.12" y="138.56" width="1.04" height="102.4" transform="translate(-144.01 169.83) rotate(-68.96)"/><rect class="cls-234" x="50.75" y="139.53" width="1.04" height="102.4" transform="translate(-145.16 170.11) rotate(-68.96)"/><rect class="cls-235" x="50.37" y="140.5" width="1.04" height="102.4" transform="translate(-146.3 170.4) rotate(-68.97)"/><rect class="cls-236" x="50" y="141.47" width="1.04" height="102.4" transform="translate(-147.44 170.64) rotate(-68.96)"/><rect class="cls-237" x="49.63" y="142.44" width="1.04" height="102.4" transform="translate(-148.58 170.92) rotate(-68.96)"/><rect class="cls-238" x="49.26" y="143.41" width="1.04" height="102.4" transform="translate(-149.73 171.22) rotate(-68.97)"/><rect class="cls-239" x="48.88" y="144.37" width="1.04" height="102.4" transform="translate(-150.87 171.47) rotate(-68.96)"/><rect class="cls-240" x="48.51" y="145.34" width="1.04" height="102.4" transform="translate(-152.01 171.74) rotate(-68.96)"/><rect class="cls-241" x="48.14" y="146.31" width="1.04" height="102.4" transform="translate(-153.16 172.04) rotate(-68.97)"/><rect class="cls-242" x="47.76" y="147.28" width="1.04" height="102.4" transform="translate(-154.3 172.29) rotate(-68.96)"/><rect class="cls-243" x="47.39" y="148.25" width="1.04" height="102.4" transform="translate(-155.44 172.56) rotate(-68.96)"/><rect class="cls-244" x="47.02" y="149.22" width="1.04" height="102.4" transform="translate(-156.59 172.86) rotate(-68.97)"/><rect class="cls-245" x="46.65" y="150.19" width="1.04" height="102.4" transform="translate(-157.73 173.1) rotate(-68.96)"/><rect class="cls-246" x="46.27" y="151.16" width="1.04" height="102.4" transform="translate(-158.87 173.38) rotate(-68.96)"/><rect class="cls-246" x="45.9" y="152.12" width="1.04" height="102.4" transform="translate(-160.02 173.68) rotate(-68.97)"/><rect class="cls-247" x="45.53" y="153.09" width="1.04" height="102.4" transform="translate(-161.16 173.93) rotate(-68.96)"/><rect class="cls-248" x="45.16" y="154.06" width="1.04" height="102.4" transform="translate(-162.3 174.2) rotate(-68.96)"/><rect class="cls-249" x="44.78" y="155.03" width="1.04" height="102.4" transform="translate(-163.44 174.5) rotate(-68.97)"/><rect class="cls-250" x="44.41" y="156" width="1.04" height="102.4" transform="translate(-164.59 174.75) rotate(-68.96)"/><rect class="cls-251" x="44.04" y="156.97" width="1.04" height="102.4" transform="translate(-165.73 175.02) rotate(-68.96)"/><polygon class="cls-251" points="92.16 227.03 87.59 238.91 -7.34 238.91 -7.34 200.48 -3.42 190.27 92.16 227.03"/></g></svg>