<svg id="Layer_1" data-name="Layer 1" xmlns="http://www.w3.org/2000/svg" xmlns:xlink="http://www.w3.org/1999/xlink" viewBox="0 0 100 100"><defs><style>.cls-1,.cls-5{fill:none;}.cls-2{clip-path:url(#clip-path);}.cls-3{clip-path:url(#clip-path-2);}.cls-4{clip-path:url(#clip-path-3);}.cls-5{stroke:#000;stroke-linecap:round;stroke-linejoin:round;stroke-width:3px;}</style><clipPath id="clip-path"><path class="cls-1" d="M-855.73-110.7c2.62-8.43,9-16.68,19.55-25.15.75,8.8,4.71,12.63,9.23,17a56.73,56.73,0,0,1,7.44,8.32c4.48,6.34,5.18,13.65,1.92,20.05a20.93,20.93,0,0,1-18.09,11.29h-.45a19.43,19.43,0,0,1-16.32-8C-857.06-93.37-858.31-102.39-855.73-110.7Zm19.59,34.94h.51a24.41,24.41,0,0,0,21.1-13.16c3.85-7.57,3.06-16.16-2.17-23.58a59.57,59.57,0,0,0-7.86-8.81c-4.86-4.7-8.38-8.1-8.31-17.95a1.71,1.71,0,0,0-.95-1.55,1.72,1.72,0,0,0-1.81.17C-848.32-131-856-121.53-859-111.71c-2.9,9.32-1.45,19.52,3.79,26.6A23.09,23.09,0,0,0-836.14-75.75Z"/></clipPath><clipPath id="clip-path-2"><path class="cls-1" d="M-759.38-110.7c2.62-8.43,9-16.68,19.55-25.15.75,8.8,4.71,12.63,9.23,17a56.73,56.73,0,0,1,7.44,8.32c4.48,6.34,5.18,13.65,1.92,20.05a20.93,20.93,0,0,1-18.09,11.29h-.45a19.43,19.43,0,0,1-16.32-8C-760.7-93.37-762-102.39-759.38-110.7Zm19.59,34.94h.51a24.41,24.41,0,0,0,21.1-13.16c3.85-7.57,3.06-16.16-2.17-23.58a59.57,59.57,0,0,0-7.86-8.81c-4.86-4.7-8.38-8.1-8.31-17.95a1.71,1.71,0,0,0-.95-1.55,1.72,1.72,0,0,0-1.81.17c-12.68,9.64-20.33,19.1-23.38,28.92-2.9,9.32-1.45,19.52,3.79,26.6A23.09,23.09,0,0,0-739.78-75.75Z"/></clipPath><clipPath id="clip-path-3"><path class="cls-1" d="M-840.21-109.41a7.81,7.81,0,0,0,1.71,4.23,3.79,3.79,0,0,0,2.84,1.29h0a5.57,5.57,0,0,0,4-2.14c1.47,3.13,3.39,9.94,1.68,14.16-1,2.48-3.14,3.68-6.53,3.68-2.89,0-4.78-1.5-5.76-4.58C-843.76-97.59-842.47-104.89-840.21-109.41Zm3.74,24.65c5.55,0,9.21-2.74,10.3-7.72,1.42-6.51-2.12-16.87-4.73-18.06a1.72,1.72,0,0,0-2.2.7c-1.07,1.85-2.12,2.52-2.57,2.52h0s-.14,0-.3-.18c-.64-.7-1.21-2.81-.88-6.64a1.71,1.71,0,0,0-.86-1.63,1.72,1.72,0,0,0-1.85.09c-5.18,3.65-8.36,16.42-6,24C-844.07-87.23-840.86-84.75-836.47-84.75Z"/></clipPath></defs><title>thirdthing</title><g id="WIoZPR.tif"><path class="cls-5" d="M42,19.81c1.5,2.42,2.95,4.72,4.35,7a1.41,1.41,0,0,0,1.46.78c1.66-.07,3.32,0,5,0a1.88,1.88,0,0,0,1.33-.67c1.51-2.3,2.94-4.65,4.44-7.06,2.23.93,4.4,1.8,6.53,2.76.25.11.42.79.35,1.15-.5,2.46-1.11,4.9-1.6,7.36a1.75,1.75,0,0,0,.43,1.3c1.14,1.25,2.34,2.47,3.59,3.62a1.89,1.89,0,0,0,1.44.43c2.69-.56,5.36-1.22,8.14-1.87C78.3,36.84,79.22,39,80,41.18c.1.26-.24.88-.55,1.08q-3.09,2-6.27,4a1.42,1.42,0,0,0-.75,1.57,33.82,33.82,0,0,1,0,4.73A1.33,1.33,0,0,0,73.15,54c2.12,1.28,4.19,2.63,6.3,3.91.63.38.82.71.49,1.45-.91,2-1.73,4.09-2.61,6.21-2.75-.62-5.43-1.2-8.1-1.85a1.53,1.53,0,0,0-1.76.61,33.4,33.4,0,0,1-3.27,3.25,1.46,1.46,0,0,0-.55,1.67c.65,2.67,1.26,5.35,1.9,8.09-2.23.92-4.39,1.84-6.58,2.67-.24.09-.81-.21-1-.48q-2.07-3.15-4-6.37a1.39,1.39,0,0,0-1.46-.76c-1.61.08-3.23.08-4.84,0a1.41,1.41,0,0,0-1.48.73c-1.46,2.34-3,4.64-4.54,7.07-2.21-.92-4.42-1.8-6.57-2.78-.24-.11-.37-.83-.28-1.21.51-2.38,1.05-4.74,1.66-7.1a1.32,1.32,0,0,0-.5-1.54,46.35,46.35,0,0,1-3.43-3.43A1.36,1.36,0,0,0,31,63.57c-2.67.63-5.37,1.18-8.16,1.79l-2.92-7.14c2.37-1.47,4.63-2.9,6.92-4.26a1.49,1.49,0,0,0,.86-1.63,32.6,32.6,0,0,1,0-4.74A1.43,1.43,0,0,0,26.94,46c-2.3-1.43-4.57-2.93-6.95-4.47l3-7.1c2.64.62,5.2,1.2,7.74,1.84a1.72,1.72,0,0,0,2.07-.64A23.84,23.84,0,0,1,36,32.49a1.54,1.54,0,0,0,.62-1.76c-.55-2.33-1-4.68-1.57-7-.21-.83,0-1.16.76-1.44C37.82,21.52,39.83,20.68,42,19.81ZM50.18,39.2a10.87,10.87,0,1,0,10.8,11A10.91,10.91,0,0,0,50.18,39.2Z"/></g></svg>